<?xml version="1.0" standalone="no"?>
<!DOCTYPE svg PUBLIC "-//W3C//DTD SVG 1.1//EN" "http://www.w3.org/Graphics/SVG/1.1/DTD/svg11.dtd" >
<svg xmlns="http://www.w3.org/2000/svg">
<metadata>
Created by FontPrep 20130207 at Mon Jun 22 17:34:23 2015
 By admin
(c) Marley S. Diehl &#38; Apostrophic Laboratories. All rights reserved. Based on 1940 lettering by Wooster Bard Field. 
</metadata>
<defs>
<font id="0b53f6c79a610ae68458958c48464b61" horiz-adv-x='1024' >
  <font-face 
    font-family="DiehlDeco"
    font-weight="400"
    font-stretch="normal"
    units-per-em="2048"
    panose-1="2 0 0 0 0 0 0 0 0 0"
    ascent="1638"
    descent="-410"
    x-height="1847"
    cap-height="1920"
    bbox="-312 -724.579 4319 2742"
    underline-thickness="102"
    underline-position="-153"
    unicode-range="U+0006-2122"
  />
<missing-glyph horiz-adv-x="1024" 
 />
    <glyph glyph-name=".notdef" horiz-adv-x="1024" 
 />
    <glyph glyph-name=".null" horiz-adv-x="0" 
 />
    <glyph glyph-name="nonmarkingreturn" horiz-adv-x="1024" 
 />
    <glyph glyph-name="dotaccent" horiz-adv-x="503" 
d="M250 2048q-165 104 -106 197q22 33 81 63q92 0 136 -35q43 -35 45 -80t-39 -88t-117 -57z" />
    <glyph glyph-name="ring" horiz-adv-x="602" 
d="M307 2140q45 0 77 32t32 79t-32 79t-77 32t-77 -32t-32 -79t32 -79t77 -32zM307 2050q-84 0 -142 58q-57 58 -58 143q-1 84 57 142t143 58t143 -58t58 -142t-58 -143q-59 -58 -143 -58z" />
    <glyph glyph-name="hungarumlaut" unicode="&#xa;" horiz-adv-x="794" 
d="M377 2335l303 389q26 -18 52 -34q90 -53 65 -71l-310 -374zM12 2353l303 389q25 -18 67 -42q76 -44 50 -62l-309 -375z" />
    <glyph glyph-name="caron" horiz-adv-x="794" 
d="M246 2329q0 -6 4 -15h8q27 -53 41 -81t34 -61t64 -120q10 10 48 64t96 182l4 47q27 2 43 2t30 -1l28 -2t32 1q4 -4 11 -9q33 -24 13 -67q-10 -10 -22 -12t-25 -14q0 -6 -14 -21q-79 -165 -182 -321q-14 -12 -28 -26t-31 -9q-17 4 -40 14q-18 28 -38 58q-93 137 -166 296
q-4 4 -4 8t-2 7q-4 4 -5 6q-36 6 -45 16q-21 23 2 72l31 2l111 -2q2 -8 2 -14z" />
    <glyph glyph-name="dotlessi" unicode="&#xd;" horiz-adv-x="432" 
d="M168 1223q0 295 -2 506q-80 74 -21 129h150q29 -39 21 -70t-29 -84q-12 -246 -13 -1583q38 -21 43 -79t-26 -75q-29 2 -50 2h-38l-68 -2h-4q-11 15 -16 62t12 61q4 4 9 11t18 16q2 213 8 512t6 594z" />
    <glyph glyph-name="fraction" horiz-adv-x="1454" 
d="M2 74q141 171 262 346l844 1120q205 288 231 340q27 -16 70 -38q76 -38 49 -56l-166 -234q-29 -40 -89 -120t-138 -186t-171 -228q-93 -123 -187 -249q-93 -126 -187 -248t-172 -226t-138 -182t-89 -117z" />
    <glyph glyph-name="fi" horiz-adv-x="1069" 
d="M862 1342q0 198 -2 409q-78 74 -20 131h147q29 -39 23 -71t-29 -82q-14 -287 -14 -1586q34 -15 41 -58q12 -76 -23 -95q-29 2 -51 2h-39l-66 -2h-6q-21 41 -16 78q4 36 14 45q4 14 27 28q2 229 8 616t6 585zM707 1688q-29 0 -61 17t-58 26q-157 10 -202 10q-46 0 -56 -3
t-21 -5q-26 -513 3 -687q7 -42 14 -51q53 10 109 4t112 -2q91 43 114 -16t-12 -147q-67 0 -90 27q-6 7 -18 11q-47 0 -73 4t-58 6q-32 3 -91 -10q-33 -180 -13 -544q5 -92 5 -185q58 -70 26 -106q-9 -10 -11 -27q-29 -4 -69 1t-89 1q-25 45 -18 63q6 19 15 33t17 37
q0 393 8 781t-8 776q-16 40 -39 65q-23 26 -30 48q55 82 225 38q27 1 81 7q250 30 326 -5q0 -96 7 -151q-16 -16 -45 -16z" />
    <glyph glyph-name="fl" horiz-adv-x="1622" 
d="M811 43q0 47 15 57q14 10 28 10t16 3q4 406 4 837l5 844q-39 38 -39 62t5 32t5 17q47 29 87 31t99 -31q0 -29 -6 -55t-33 -48v-1659q9 -12 27 -39h154q94 0 136 4q40 4 87 7q21 8 39 19t52 27t75 -5q0 -133 -90 -189q-93 35 -217 35t-196 -3t-127 -1q-56 2 -91 11t-35 34
zM707 1688q-29 0 -61 17t-58 26q-157 10 -202 10q-46 0 -56 -3t-21 -5q-26 -513 3 -687q7 -42 14 -51q53 10 109 4t112 -2q91 43 114 -16t-12 -147q-67 0 -90 27q-6 7 -18 11q-47 0 -73 4t-58 6q-32 3 -91 -10q-33 -180 -13 -544q5 -92 5 -185q58 -70 26 -106
q-9 -10 -11 -27q-29 -4 -69 1t-89 1q-25 45 -18 63q6 19 15 33t17 37q0 393 8 781t-8 776q-16 40 -39 65q-23 26 -30 48q55 82 225 38q27 1 81 7q250 30 326 -5q0 -96 7 -151q-16 -16 -45 -16z" />
    <glyph glyph-name="Lslash" horiz-adv-x="1675" 
d="M449 1923h116q16 -8 35 -27v-75q-81 -107 -52 -432q7 -80 11 -148v-137l88 70q250 211 258 229q65 -65 72 -117q2 -14 -10 -18l-185 -156q-47 -39 -103 -86t-118 -96q4 -360 4 -506t-2 -207t2 -84q26 -16 161 -16q136 0 227 4t174 8t148 8t91 4q27 10 66 53q75 83 131 -1
q-26 -185 -82 -213q-27 -15 -44 -10t-22 3q-42 23 -65 29q-180 0 -356 2t-341 -14q-59 10 -109 4t-90 -6t-64 17t-23 77q38 15 54 107q5 36 6 71t5 57v510q-110 -89 -285 -223q-21 22 -31 60t-30 61q149 106 285 227l57 47q0 63 -2 137t-3 164t-3 202t-4 253q-75 97 -63 133
q12 35 96 35z" />
    <glyph glyph-name="lslash" horiz-adv-x="1171" 
d="M336 1830q0 24 5 32t5 16q47 29 87 32t99 -32q0 -67 -38 -102v-717q244 210 254 227q34 -34 58 -81t3 -54l-184 -156q-93 -77 -131 -110v-768l26 -37h154q104 0 221 10q19 8 39 20t54 26q34 15 75 -5q0 -134 -90 -190q-83 36 -266 36q-74 0 -193 -5q-207 -9 -207 46
q1 46 15 56t27 10t18 2q2 170 2 344t2 354q-102 -84 -219 -174q-20 22 -31 60t-31 61q140 100 281 223l2 815q-37 37 -37 61z" />
    <glyph glyph-name="Zcaron" horiz-adv-x="1912" 
d="M711 10h-578q-18 40 -18 59v35q120 128 511 624q392 496 584 749q192 254 207 282q-243 4 -493 7t-484 -25q-32 -10 -56 -35l-46 -46q-52 -52 -98 -24q0 109 42 202q13 32 27 67q61 0 152 -27q287 0 583 10t592 10q106 -66 -859 -1211q-127 -153 -291 -348t-164 -212
q8 0 53 2t155 3t296 3q187 2 483 2q185 14 319 19q27 39 46 79t50 50q30 10 72 10q12 -74 -12 -142q-44 -126 -107 -153q-45 27 -62 16q-3 -2 -3 7q-520 -13 -901 -13zM1124 2507l90 -2l12 -9t17 -20q10 -14 -4 -47q-10 -10 -22 -12t-25 -15q0 -6 -14 -20
q-79 -167 -183 -322q-14 -12 -23 -21t-22 -14t-53 15q-19 28 -39 58q-83 119 -166 296q-4 4 -4 6l-6 15q-37 6 -46 16q-20 23 3 72l31 2l110 -2q2 -9 2 -15t4 -14h9q27 -53 43 -85t42 -78q27 -46 54 -99q10 10 48 64t95 182l4 47q27 2 43 2z" />
    <glyph glyph-name="zcaron" horiz-adv-x="964" 
d="M707 2507q16 0 30 -1l28 -2t32 1q4 -3 11 -9t17 -20t-4 -47q-10 -10 -22 -12t-25 -15q0 -6 -14 -20q-77 -162 -182 -322q-14 -12 -28 -25t-31 -10q-17 4 -40 15q-19 28 -39 58q-83 119 -166 296q-4 4 -4 6l-6 15q-36 6 -46 16q-21 23 3 72l31 2l110 -2q2 -9 2 -15t5 -14
h8q27 -53 43 -85t42 -78q27 -46 54 -99q10 10 48 64t95 182l5 47q27 2 43 2zM115 -10q0 20 -2 28q44 90 152 440t155 500t111 354t104 301q39 97 49 91q-58 75 -167 67t-257 -84l-24 -14q-12 12 -11 46t17 69t18 47q23 23 65 23q46 0 169 -16q124 -16 184 -7q16 0 32 6
q59 23 113 -31q-211 -550 -474 -1444q-88 -298 -83 -303q84 1 144 7q192 17 338 -4q27 18 40 62t24 48t42 -20q0 -60 -9 -110t-46 -97q-130 40 -518 14q-88 -6 -164 -2q-2 9 -2 29z" />
    <glyph glyph-name="space" unicode=" " horiz-adv-x="815" 
 />
    <glyph glyph-name="space" unicode="&#xa0;" horiz-adv-x="815" 
 />
    <glyph glyph-name="exclam" unicode="!" 
d="M186 -20q-234 148 -26 264q92 0 136 -36t45 -81t-39 -89t-116 -58zM272 1307q0 -538 -10 -781l-141 -4q12 188 12 432l-2 471q0 362 -10 412q31 2 61 6t50 6q22 2 33 -2t7 -18v-522z" />
    <glyph glyph-name="quotedbl" unicode="&#x22;" horiz-adv-x="647" 
d="M401 1409l-10 494q31 2 61 6t52 6t35 -2q12 -4 8 -19l-2 -485h-144zM104 1413l-10 494q31 2 61 6q31 4 53 6t34 -2t8 -19l-2 -485h-144z" />
    <glyph glyph-name="numbersign" unicode="#" horiz-adv-x="1697" 
d="M934 1126q-86 0 -178 2q-33 -78 -68 -158t-70 -161h345l137 317h-166zM979 1268q90 0 182 2l84 190q52 136 83 224q31 89 43 122q11 33 11 43q31 -10 77 -19t58 -20q13 -10 5 -22l-101 -268q-57 -146 -102 -248q247 5 252 6q2 -31 9 -81t2 -62t-19 -9h-306
q-33 -76 -65 -154t-68 -161q334 0 346 8q2 -31 6 -61t7 -52q2 -22 -2 -34t-19 -8h-401q-150 -342 -217 -508l-135 45q86 181 163 401l27 62l-342 2q-128 -288 -215 -504l-135 45q82 173 164 401l26 60q-79 2 -151 3t-127 5l-4 145q216 -12 344 -12l139 319q-268 5 -379 11
l-4 141q174 -12 442 -12l86 198q134 352 138 389q31 -10 76 -19t58 -19t5 -23l-100 -268q-28 -75 -107 -258h166z" />
    <glyph glyph-name="dollar" unicode="$" horiz-adv-x="1277" 
d="M393 1395q103 -110 205 -172v503q-120 -35 -188 -125q-68 -91 -17 -206zM733 102q149 24 228 134q121 331 -82 580q-61 75 -142 142q0 -482 -4 -856zM596 1872q-4 154 -8 172q30 2 60 6t52 6t32 -2q11 -4 7 -18v-162q41 -4 84 -12q57 8 88 11t47 -10t22 -48t17 -103
q9 -16 23 -36q59 -83 29 -148q-96 -45 -147 95q-11 34 -19 58q-45 27 -77 35t-67 19v-234l-2 -362q39 -35 95 -82q240 -200 293 -375q86 -288 -26 -487q-42 -76 -85 -114t-43 -42q-94 -57 -240 -74q0 -192 -4 -264l-141 -4q4 63 10 266q-158 14 -289 72q-84 0 -120 20
q-36 21 -48 59t-9 94t-3 128q-20 51 -15 86t24 44t49 -9t61 -70q24 -102 46 -150t56 -72t93 -35q58 -11 157 -36v971q-47 33 -95 63t-95 62q-115 100 -156 202q-82 204 92 359q84 74 219 117q13 0 33 4z" />
    <glyph glyph-name="percent" unicode="%" horiz-adv-x="2201" 
d="M1636 121q243 -50 341 189q30 71 48 155q0 142 -26 216q-47 134 -146 198q-140 57 -219 44q-43 -7 -87 -35t-107 -73q-37 -57 -66 -106t-37 -121q-16 -47 -3 -122q13 -76 44 -146t74 -122t83 -60q41 -8 65 -9q24 -2 36 -8zM1653 -14q-114 12 -189 54t-151 120
q-70 117 -94 246q-51 265 106 463q78 97 211 149q164 50 304 2q94 -32 170 -114q28 -30 43 -52t20 -25q18 -61 37 -114q65 -181 14 -342q-18 -53 -34 -100q-24 -72 -58 -134l-17 -23q-44 -66 -176 -107q-73 -23 -186 -23zM492 967q240 -49 341 189q30 71 48 155
q0 305 -172 413q-139 57 -220 44q-43 -6 -87 -34t-107 -73q-37 -57 -66 -107t-36 -120q-15 -47 -3 -122t43 -146t74 -123t83 -59t65 -9t37 -8zM508 831q-112 11 -186 53t-154 122q-70 118 -94 246q-51 266 106 463q78 97 211 149q297 85 474 -112q28 -30 43 -52t20 -25
q18 -61 38 -114q66 -181 13 -342q-18 -53 -35 -102q-25 -75 -57 -132l-17 -23q-44 -66 -176 -107q-73 -24 -186 -24zM379 74q141 171 262 346l844 1120q205 288 231 340q27 -16 71 -38q75 -38 48 -56l-166 -234q-29 -40 -89 -120t-138 -186t-171 -228q-93 -123 -187 -249
t-188 -248q-93 -122 -171 -226t-138 -182t-89 -117z" />
    <glyph glyph-name="ampersand" unicode="&#x26;" horiz-adv-x="2220" 
d="M977 1772h-31q-305 90 -462 10q-68 -35 -94 -93t-16 -123t56 -125q45 -61 118 -101q168 -93 384 -21q22 -6 53 -10q36 -85 -66 -120q-26 -9 -47 -13q-277 30 -446 -106t-195 -344q-25 -208 95 -370q164 -190 403 -208q105 -7 203 23q201 61 290 223t-28 354
q-59 96 -190 188q-122 0 -212 -90q-28 -27 -57 -55q-10 -16 -13 -65t-22 -71h-57q-39 53 -41 97t27 98q100 111 183 145q84 34 253 54q365 -18 523 16q159 33 237 69q266 121 145 400q3 34 43 42q13 3 25 2t14 -1q188 -412 -283 -558q-186 -58 -503 -74q-59 -3 -78 -9
q248 -330 170 -572q-35 -108 -125 -182t-210 -110t-254 -33q-134 2 -257 43t-219 123t-139 207q-78 251 -14 476q76 259 333 353q-55 6 -106 49q-104 88 -137 247t63 270q104 123 379 108q143 -8 344 -70q45 -58 -10 -70q-14 -3 -29 -3z" />
    <glyph glyph-name="quotesingle" unicode="'" horiz-adv-x="344" 
d="M104 1413l-10 494q31 2 61 6q31 4 53 6t34 -2t8 -19l-2 -485h-144z" />
    <glyph glyph-name="parenleft" unicode="(" horiz-adv-x="665" 
d="M258 940q0 -426 352 -895l13 -16h-119q-118 156 -216 343q-173 330 -173 544q0 213 115 447q115 233 255 439l17 25h121q-38 -46 -114 -158q-76 -113 -149 -274q-102 -238 -102 -455z" />
    <glyph glyph-name="parenright" unicode=")" horiz-adv-x="665" 
d="M47 27q361 457 363 891q0 358 -248 739l-117 168h121q144 -214 237 -398q147 -283 147 -497t-110 -440q-111 -227 -260 -441l-14 -22h-119z" />
    <glyph glyph-name="asterisk" unicode="*" horiz-adv-x="1058" 
d="M385 1112q0 -14 2 -25l-188 136q118 76 286 282q-51 11 -89 21q-94 24 -184 24t-128 -24l70 219q85 -74 362 -182q-12 164 -37 251t-69 132h233q-40 -106 -50 -215q-9 -109 -11 -181q216 88 287 159q26 26 44 56l70 -219q-19 2 -29 2h-24q-128 0 -338 -63
q102 -123 172 -179t135 -67l-188 -137q-32 146 -183 358q-143 -244 -143 -348z" />
    <glyph glyph-name="plus" unicode="+" horiz-adv-x="1081" 
d="M625 883q311 0 354 10q2 -31 9 -81t2 -62t-19 -9h-346q0 -47 -2 -89t-3 -87q-2 -45 -4 -96t-4 -119l-145 -4q10 160 12 395q-47 0 -88 1t-101 2t-196 10l-4 141q156 -12 389 -12q-4 304 -10 352q31 2 81 9t64 2t11 -19v-344z" />
    <glyph glyph-name="comma" unicode="," horiz-adv-x="503" 
d="M236 -20q-234 148 -27 264q60 31 129 -24t61 -155q-8 -99 -77 -178q-70 -78 -195 -106l-6 43q57 24 97 68t46 96q-8 -4 -28 -8z" />
    <glyph glyph-name="hyphen" unicode="-" horiz-adv-x="704" 
d="M207 854q-48 -2 -107 -16l13 143q36 -6 152 -6h224q61 0 119 14l-10 -141q-72 8 -207 8q-136 0 -184 -2z" />
    <glyph glyph-name="period" unicode="." horiz-adv-x="503" 
d="M236 -20q-234 148 -27 264q92 0 136 -36t45 -81q2 -45 -38 -89t-116 -58z" />
    <glyph glyph-name="slash" unicode="/" horiz-adv-x="978" 
d="M10 6q81 170 164 402l524 1300q134 352 138 389q31 -10 75 -19t58 -20q14 -10 6 -22l-101 -269q-18 -47 -55 -139q-120 -299 -198 -495t-182 -449q-103 -254 -185 -457t-109 -266z" />
    <glyph glyph-name="zero" unicode="0" horiz-adv-x="1638" 
d="M748 168q392 -77 559 314q49 116 79 253q0 502 -286 678q-125 49 -208 67q-159 35 -294 -50q-72 -45 -174 -121q-32 -47 -60 -89q-99 -145 -108 -286q-35 -98 7 -266t136 -313q96 -145 187 -152q59 -13 98 -17t64 -18zM778 31q-227 20 -397 162q-53 45 -111 98
q-104 175 -140 369q-75 404 158 695q116 144 316 222q428 125 708 -168q42 -45 66 -79t29 -36q29 -94 57 -173q60 -167 57 -285q-3 -119 -36 -224q-29 -80 -55 -161t-84 -193l-25 -36q-64 -93 -262 -155q-111 -36 -281 -36z" />
    <glyph glyph-name="one" unicode="1" horiz-adv-x="669" 
d="M354 540q0 202 -10 625q16 74 10 121t-12 80q-60 0 -114 -18t-107 -19q-16 14 -17 27v28q59 23 126 48t112 77q8 35 14 61t13 37q8 11 14 23h45q18 0 25 -2q10 -8 16 -17t14 -20q-23 -369 -17 -743t5 -746l32 -16q11 -6 19 -11t16 -9t23 -13q0 -70 -25 -82
q-25 -13 -108 -18q-69 12 -117 4q-49 -8 -69 -4q-16 41 -8 63t46 37q38 16 54 39q2 14 8 39t9 116t3 293z" />
    <glyph glyph-name="two" unicode="2" horiz-adv-x="1462" 
d="M262 1236q0 22 -2 50q89 151 303 218q214 68 403 6q92 -30 160 -96t95 -169q62 -442 -405 -859q-166 -149 -396 -290q0 -4 184 6t727 11q19 -23 17 -43t-2 -52q-11 -9 -48 -26q-651 15 -1032 0q-57 -41 -114 -45q-27 23 -39 41v71q329 196 467 293q138 98 246 200
q232 219 275 473q24 134 -24 288q-70 69 -130 91t-134 21h-104q-211 -34 -310 -146q-39 -44 -49 -105q-67 0 -82 27q-6 13 -6 35z" />
    <glyph glyph-name="three" unicode="3" horiz-adv-x="1263" 
d="M342 768q0 10 6 31q23 16 30 20t36 10q70 4 150 43q80 38 144 102q151 151 109 316q-136 156 -323 156t-279 -168q-41 -14 -78 -14q-53 53 3 128q37 47 75 66q106 57 222 82q244 53 393 -92q75 -74 104 -215q0 -185 -97 -332q-34 -49 -79 -78q14 -20 43 -32
q155 -64 215 -125q59 -60 83 -108t34 -88t11 -72t7 -50q0 -285 -186 -507q-228 -270 -670 -406q-99 -15 -153 -25q-123 -22 -195 -22q-29 31 -27 51t2 51q12 8 194 41q461 84 624 234q163 151 240 298q37 71 58 164q0 80 -12 154q-59 169 -138 232t-259 108l-154 -10
q-100 0 -133 24v33z" />
    <glyph glyph-name="four" unicode="4" horiz-adv-x="1822" 
d="M515 555h476q33 8 52 11t29 5t18 3q6 1 14 4q4 192 12 378t2 373q-47 0 -428 -400q-59 -62 -108 -116t-89 -84q-130 -94 -135 -176q78 2 157 2zM1077 410v39h-829q-91 -9 -110 5q-32 23 -21 101q374 325 496 454q122 130 196 224q10 8 38 38q27 29 65 69q100 105 182 164
t123 20q12 -84 12 -456v-415q0 -43 2 -80q106 0 223 2t225 0q17 -25 25 -37t8 -53q-26 -29 -92 -37t-143 -8l-244 9q-16 -46 -16 -111q0 -70 8 -196t-8 -201l-89 -2q-51 17 -51 471z" />
    <glyph glyph-name="five" unicode="5" horiz-adv-x="1263" 
d="M604 1499l367 -10q29 -24 45 -64q-6 -25 -14 -35t-31 -34q-76 0 -152 7q-77 7 -149 10q-171 7 -281 -44q-37 -92 -56 -203t-34 -225q14 0 20 -4t17 -8q340 80 562 -59q222 -138 253 -492q-15 -296 -238 -535q-186 -197 -458 -318q-273 -121 -482 -149q-59 29 -69 66
t49 66q319 20 622 228q92 62 193 134q18 20 66 74q119 136 166 336q28 113 8 252q-57 135 -151 203q-44 32 -97 54t-121 50q-98 0 -181 -3t-167 -44q-129 0 -134 79q-4 48 40 173q69 307 87 361q19 53 23 73q20 61 297 61z" />
    <glyph glyph-name="six" unicode="6" horiz-adv-x="1630" 
d="M453 246q95 -95 263 -116t326 38q68 25 107 41q176 131 224 311t-11 373q-114 204 -307 279t-390 27t-323 -183q-39 -60 -51 -118q-13 -58 -33 -124q-37 -117 7 -234q63 -173 188 -294zM1090 1825q0 -18 -25 -43q-208 -21 -374 -153t-296 -388q-27 -53 -45 -80
q2 -1 33 17q266 150 499 148q81 -1 160 -28q460 -120 478 -572q2 -75 -6 -133t-7 -83q-48 -168 -123 -252q-75 -83 -245 -192q-233 -74 -459 -54q-226 21 -397 210q-91 100 -146 270q-58 324 32 598q90 275 372 577q113 84 227 135q116 52 192 71t130 -1v-47z" />
    <glyph glyph-name="seven" unicode="7" horiz-adv-x="1343" 
d="M1024 1337q0 6 -2 17q-82 0 -178 -3q-268 -7 -383 -11q-320 -9 -340 46q-4 16 -8 37q11 11 19 22t22 19q296 -7 1013 4q53 -12 61 -45t-16 -92q-42 0 -217 -326q-90 -169 -128 -256t-38 -96q-179 -352 -255 -564q-147 -407 -173 -701q-26 -13 -63 -19q-37 29 -43 36
t-10 22q0 220 127 565q53 143 109 279t97 255q29 25 87 146q59 121 164 338t155 295v32z" />
    <glyph glyph-name="eight" unicode="8" horiz-adv-x="1394" 
d="M653 1161q15 5 33 13t41 14q69 43 143 94q271 188 101 406q-136 87 -297 89t-246 -110q-103 -158 -43 -279q54 -105 268 -227zM217 516q0 -146 118 -267t293 -147q176 -26 345 103q71 57 109 102q70 84 63 209q-4 63 -17 160q-101 244 -401 338q-200 0 -353 -153
q-71 -71 -114 -166t-43 -179zM807 1124l-4 -20q53 -30 105 -56q191 -97 288 -219q54 -119 70 -172t16 -157q-50 -261 -206 -395q-190 -161 -476 -124q-150 17 -247 67q-42 22 -54 38q-176 188 -184 379q-22 382 316 585q40 24 67 36t26 14q-8 8 -37 20t-63 36
q-95 66 -133 159q-76 148 -36 283q30 103 115 180q34 31 60 47t31 20q270 78 462 6q138 -51 193 -192q29 -74 29 -176q-28 -138 -122 -221q-44 -39 -99 -71t-117 -67z" />
    <glyph glyph-name="nine" unicode="9" horiz-adv-x="1574" 
d="M383 657q4 -14 54 -42q120 -67 297 -80q207 -17 378 114q90 70 156 205q71 228 -81 403q-127 144 -350 193q-95 20 -179 11t-132 -48q-230 -119 -270 -317q-27 -140 48 -303q28 -61 53 -99zM465 -498q-35 31 -48 54t-3 63q252 102 410 220t313 325q91 185 117 256
q54 148 49 287q-110 -138 -176 -185q-124 -88 -267 -114q-135 -33 -265 -1q-268 66 -408 304t-19 502q61 134 215 255q200 148 424 123q163 -17 328 -115q88 -55 135 -102q234 -324 185 -704t-314 -723q-13 -31 -113 -110q-163 -129 -329 -230q-167 -101 -234 -105z" />
    <glyph glyph-name="colon" unicode=":" horiz-adv-x="503" 
d="M233 756q-232 147 -26 262q92 0 136 -35t45 -81t-39 -89t-116 -57zM236 -20q-234 148 -27 264q92 0 136 -36t45 -81q2 -45 -38 -89t-116 -58z" />
    <glyph glyph-name="semicolon" unicode=";" horiz-adv-x="503" 
d="M242 756q-232 147 -27 262q92 0 136 -35t45 -81q2 -46 -38 -89t-116 -57zM236 -20q-234 148 -27 264q60 31 129 -24t61 -155q-8 -99 -77 -178q-70 -78 -195 -106l-6 43q57 24 97 68t46 96q-8 -4 -28 -8z" />
    <glyph glyph-name="less" unicode="&#x3c;" horiz-adv-x="1523" 
d="M1419 265q0 -67 -36 -87t-85 53q-114 69 -300 165q-185 95 -367 190t-516 258q-6 4 -6 20l4 49l1175 646q76 76 103 53q6 -45 12 -81q13 -78 -31 -101q-25 -14 -82 -15q-43 -19 -342 -180q-299 -160 -402 -215t-171 -92l-68 -37l54 -29q54 -29 302 -159t407 -216
q160 -85 230 -122q27 -2 43 5t39 7q18 -12 28 -48t9 -64z" />
    <glyph glyph-name="equal" unicode="=" horiz-adv-x="1081" 
d="M610 705q326 0 377 10q2 -31 6 -61t6 -52t-2 -35q-4 -12 -18 -8h-377q-148 0 -209 2t-128 4t-163 6l-4 146q186 -12 512 -12zM605 1149q327 0 376 10q2 -31 6 -61t6 -50q2 -22 -2 -33t-18 -7h-377q-148 0 -209 2t-128 4t-163 6l-4 141q186 -12 513 -12z" />
    <glyph glyph-name="greater" unicode="&#x3e;" horiz-adv-x="1523" 
d="M1411 913l4 -49q0 -16 -6 -20q-358 -174 -528 -264q-170 -89 -339 -175t-317 -174q-48 -73 -83 -53t-38 88q0 27 10 63q9 36 27 48q23 0 39 -7t43 -5q70 37 170 90t211 111l220 116t197 105q87 46 141 75l55 29l-68 37q-68 37 -171 92t-226 121t-233 124
q-111 58 -189 100t-97 50q-99 0 -112 54q-6 26 0 62t12 81q14 12 40 -2t43 -32t20 -19z" />
    <glyph glyph-name="question" unicode="?" horiz-adv-x="1277" 
d="M453 -27q-235 149 -27 265q92 0 136 -36t45 -81t-39 -89t-115 -59zM307 1800q230 102 475 65q98 -15 189 -69q1 -2 23 -16q59 -37 103 -98q82 -113 83 -275q0 -83 -29 -181t-84 -166t-170 -132q-47 -27 -82 -62q-109 -56 -199 -121q-13 -29 -47 -79q-10 -68 -16 -103
q-7 -35 -23 -48t-47 -10t-88 11q-28 51 23 159q31 69 86 144q82 59 161 107q183 110 261 189q159 162 35 484q-91 121 -264 138q-50 4 -99 4q-98 -25 -156 -36t-94 -35q-34 -24 -56 -73t-46 -149q-31 -52 -61 -70t-49 -9t-24 43t15 87q6 72 3 128q-6 116 57 153
q36 20 120 20z" />
    <glyph glyph-name="at" unicode="@" horiz-adv-x="2136" 
d="M1972 1118q0 170 -74 314q-148 287 -468 410q-154 58 -340 58t-360 -84q-173 -84 -297 -226q-125 -142 -193 -322t-68 -387t145 -397q145 -189 370 -296q226 -108 437 -108q212 0 339 24q126 24 270 99l39 -76q-150 -66 -304 -118t-341 -52t-386 70q-199 71 -355 197
t-250 307q-95 181 -95 407t83 422q83 195 228 337t343 222q197 80 407 80q210 1 386 -61q363 -127 526 -450q81 -161 81 -382t-125 -434q-90 -155 -245 -219q-79 -33 -159 -31q-188 5 -266 139q-20 37 -22 74q-61 -82 -155 -140t-193 -69q-144 -4 -220 112q-61 93 -62 230
q-2 269 163 492q77 104 185 173t234 69t182 -97q16 -26 30 -53l92 -2q12 -90 -10 -182t-55 -180q-33 -87 -61 -164t-27 -137t45 -99t134 -46q90 -6 143 20q54 26 97 73q121 132 161 365q11 65 11 118zM774 818q0 -72 9 -118q19 -98 88 -140q35 -22 91 -22q103 1 209 132
q85 103 148 262t72 250q0 87 -67 137q-66 51 -146 51t-154 -53q-147 -105 -217 -324q-33 -103 -33 -175z" />
    <glyph glyph-name="A" unicode="A" horiz-adv-x="2086" 
d="M645 872q179 8 359 4t358 -4q-59 152 -189 435t-176 397q-15 0 -188 -411q-173 -412 -164 -421zM1970 66q0 -2 -3 -6t-7 -21q-58 -54 -129 -36q-71 19 -92 77q10 16 11 22t1 29q-49 94 -138 254t-181 363h-334l-402 -3h-131q-44 -68 -62 -107q-76 -176 -216 -466
q-7 -31 6 -54q12 -22 19 -34q22 -36 -27 -64q-48 -28 -94 -17t-70 39t5 70q11 15 26 26q14 11 16 18q135 342 544 1212q71 152 129 277t95 202q14 11 23 21t21 14t54 -14q71 -103 446 -918q366 -796 480 -874q10 -8 10 -10z" />
    <glyph glyph-name="B" unicode="B" horiz-adv-x="1335" 
d="M348 1202h96q65 0 109 10q162 68 218 190q57 123 -52 255q-145 75 -293 95q-51 7 -90 -1v-268q0 -134 12 -281zM371 145q-9 -2 29 -9q103 -19 223 4q368 70 440 403q0 290 -217 422q-187 112 -488 88q-2 -7 -6 -13t-6 -16q2 -216 -1 -436t26 -443zM952 1480
q0 -84 -34 -132q-34 -49 -76 -86q-41 -37 -76 -63t-35 -42q302 -91 420 -275q101 -161 62 -348q-38 -186 -156 -326t-223 -157q-146 -37 -263 -43t-191 -9t-151 -7q-31 14 -55 23t-40 19q-30 21 -13 79q29 6 42 15t42 30q-4 37 4 569t-6 1016q-9 28 -62 40q-12 3 -16 7
q-9 54 -1 69q8 16 48 37q218 -6 320 -20t182 -42t142 -75t99 -121t37 -158z" />
    <glyph glyph-name="C" unicode="C" horiz-adv-x="1943" 
d="M526 156q-276 170 -369 472q-67 217 -30 483q36 256 177 449q58 79 147 153t327 179q205 51 318 47q204 -7 379 -92q29 -1 48 9t48 26q20 -14 50 -53q29 -39 53 -87q58 -118 28 -177q-28 2 -58 6t-59 6q-29 37 -42 63l-30 60q-458 158 -806 14q-131 -53 -236 -164
q-146 -149 -199 -400q-41 -192 -14 -370q0 -132 124 -298q232 -310 657 -362q157 -19 345 13q107 40 144 63q36 24 62 40t73 38q17 18 33 38q58 72 135 34q0 -99 -45 -140q-22 -22 -56 -42t-77 -58q-198 -120 -472 -122q-215 -4 -432 63q-89 27 -149 58t-74 51z" />
    <glyph glyph-name="D" unicode="D" horiz-adv-x="1943" 
d="M395 995v-823q19 -12 97 -18t190 4q459 41 743 318q111 108 181 269q159 380 7 627q-124 203 -438 308q-243 82 -527 102q-114 8 -186 6t-75 -4q8 -276 8 -789zM266 178v414q0 298 -4 614t-8 586q-27 12 -41 18q-35 15 -55 45q0 45 1 55t9 15q738 30 1166 -176
q200 -96 315 -228q226 -259 165 -586t-353 -586t-737 -331q-226 -37 -480 -4q-45 8 -72 6t-57 21q0 53 3 78t27 59h121z" />
    <glyph glyph-name="E" unicode="E" horiz-adv-x="1282" 
d="M414 1925q133 0 274 -6q62 6 152 13t176 -7q36 -135 37 -211q-25 -15 -41 -13q-16 1 -39 3q-38 35 -72 80q-48 12 -116 12h-443q-20 -35 -1 -330q5 -78 9 -150t8 -131q4 -58 4 -87q8 -4 19 -4l160 2h92q53 0 125 -2q100 47 143 38t55 -104q0 -86 -56 -110
q-59 -27 -128 43l-399 4q-23 -46 -23 -434t10 -398l347 -10q217 0 346 61q32 74 114 33q17 -150 -64 -192q-32 -16 -65 -12t-43 12q-203 3 -417 -9t-412 -12q-19 27 -21 45v41q38 16 43 28q6 11 15 25q4 416 8 829t-8 818q-10 18 -33 30q-54 29 -57 61q-2 19 28 48
q140 -4 273 -4z" />
    <glyph glyph-name="F" unicode="F" horiz-adv-x="1157" 
d="M420 1905q51 0 93 1t119 3t222 8q27 10 43 15t59 1q60 -77 76 -139q16 -63 -1 -91t-85 -11q-34 49 -51 62q-18 13 -33 22q-139 14 -270 7t-262 -18q-4 -9 -4 -67v-105l4 -483q181 -39 364 -4q61 12 115 35q47 -38 62 -84q28 -91 -27 -133q-59 0 -185 17q-227 30 -329 5
q-2 -66 -2 -119v-98l-2 -254v-86q0 -102 4 -258q10 -16 21 -20q11 -5 21 -11q22 -15 21 -73q-40 -35 -80 -38q-41 -3 -65 -2t-45 1q-23 20 -44 38t-11 37t28 43q17 232 11 646q-5 414 -5 518q-6 122 -8 242t-8 243q-16 27 -31 47t-18 35q-2 16 -2 45l39 23h266z" />
    <glyph glyph-name="G" unicode="G" horiz-adv-x="1871" 
d="M1628 580q0 276 -14 342q-47 0 -113 -3t-181 -7t-187 20q-3 44 -9 66t4 38q137 25 470 4q81 -4 153 -4q14 -9 7 -234q-7 -224 -12 -376t-5 -231q-12 -6 -52 -30q-40 -23 -106 -51q-174 -72 -317 -88q-292 -31 -537 37q-329 122 -479 362q-169 270 -129 703
q171 701 823 764q207 20 453 -10q7 -13 44 -71q157 -241 97 -295q-109 0 -169 147q-15 37 -28 66q-52 21 -84 36q-203 39 -386 -2t-322 -147t-221 -270t-82 -371q2 -11 8 -65t26 -133q52 -210 158 -351q156 -203 404 -257q308 -70 764 85q22 50 22 326z" />
    <glyph glyph-name="H" unicode="H" horiz-adv-x="1699" 
d="M154 133q18 508 18 1015t-6 648q-16 27 -32 44t-13 29q2 13 10 40q31 10 77 28q85 33 163 -41q22 -52 -39 -100q-14 -10 -21 -16v-590q192 -12 434 -12h222q363 0 413 10q2 39 10 135t9 240q0 247 -64 278q-35 55 44 83q34 11 77 11q96 0 123 -41q14 -20 -8 -49
q-13 -12 -17 -14q-9 -4 -30 -41q10 -352 -8 -717q-19 -365 -19 -549t23 -393q14 -16 24 -23t22 -22t11 -61q-75 -60 -155 -42t-79 50q-1 32 19 64t20 34v313l-10 592h-287q-486 0 -768 13q-12 -194 -12 -457l4 -449q110 -124 3 -144q-26 -5 -42 -7q-57 8 -94 9t-52 12t-8 37
t38 83z" />
    <glyph glyph-name="I" unicode="I" horiz-adv-x="479" 
d="M123 80q0 28 17 56t36 57q-6 391 -7 786t-3 786q-10 27 -32 56t-21 73q27 10 58 26q49 26 198 -24q-11 -44 -25 -70t-49 -57v-407l-10 -985q0 -88 2 -195q2 -10 13 -22q50 -55 46 -117q-45 -30 -59 -31q-15 -2 -29 -2q-61 12 -117 19q-18 22 -18 51z" />
    <glyph glyph-name="J" unicode="J" horiz-adv-x="1226" 
d="M322 479q0 -18 -23 -59q0 -203 145 -274q128 -62 312 -1q98 11 147 234q48 223 44 701q-1 110 -1 184q-10 129 -10 220t7 135q7 43 7 69t-2 44t-4 44q-37 31 -38 51t3 57q35 29 95 29t106 -31v-39q0 -25 -7 -39t-30 -49q-6 -213 1 -602t-16 -666q-16 -173 -72 -287
t-168 -165t-302 -31q-8 8 -33 12q-138 22 -198 88q-45 42 -61 94t-25 100t-25 87t-59 55q-4 35 14 61t49 37q74 26 144 -28v-31z" />
    <glyph glyph-name="K" unicode="K" horiz-adv-x="1882" 
d="M291 408q0 -154 6 -271q16 -10 27 -16t9 -31q-1 -24 -1 -55q-139 -108 -201 16v29q0 17 21 57q24 341 24 809q0 29 -8 797q0 4 -12 12q-62 42 -35 119q123 54 201 -2q0 -37 -2 -55t-29 -52v-235q0 -293 6 -341t10 -65q35 -15 314 275q76 78 207 220t173 183q23 32 82 56
q171 70 208 9q13 -22 1 -65q-24 -21 -83 -33t-93 -26q-109 -136 -405 -424q-78 -76 -143 -136q-66 -59 -108 -99t-48 -42q72 -104 462 -453q390 -348 560 -431q135 -41 292 -44q49 -1 109 -1q35 -16 41 -26q6 -11 6 -27v-42q-231 -95 -567 87q-292 161 -809 659
q-111 106 -187 168q-28 -14 -28 -524z" />
    <glyph glyph-name="L" unicode="L" horiz-adv-x="1435" 
d="M214 -12q-40 0 -64 17t-23 77q56 22 60 178q1 35 6 57v422q0 148 -7 412t-10 604q-104 137 -31 161q25 7 64 7h117q16 -8 34 -27v-75q-81 -107 -52 -432q7 -80 11 -148q3 -309 5 -512t2 -327t-2 -185t2 -84q26 -16 161 -16q136 0 291 7t239 12q83 5 109 5q27 10 67 53
q76 82 130 -1q-25 -185 -81 -213q-28 -15 -45 -10t-21 3q-42 23 -66 29q-180 0 -355 2t-341 -14q-60 10 -110 4t-90 -6z" />
    <glyph glyph-name="M" unicode="M" horiz-adv-x="2418" 
d="M2007 1720q0 -32 12 -64t13 -71q66 -311 184 -1162q18 -130 30 -213l11 -83l16 -16q80 -80 -41 -101q-51 -8 -161 4l-11 5q-10 5 -14 51q-5 9 20 30t33 29t-2 8q-103 988 -182 1375q-18 93 -31 118q-38 -38 -248 -517t-310 -674q-99 -196 -134 -210q-102 163 -333 605
t-286 563t-77 182q-19 -15 -43 -226t-39 -300q-4 -126 -32 -343q-26 -218 -38 -330t-12 -226q14 -34 28 -48t23 -27t-41 -75l-147 -2q-61 25 -77 45q-15 20 19 66q50 26 97 356q31 207 74 679q44 472 54 564q-85 110 -74 146t161 20q126 -207 293 -530q167 -322 291 -562
t159 -335q10 -1 100 197t162 352t203 438q131 283 209 444q41 22 92 16t119 -16q1 -29 -11 -46l-24 -32t-24 -34t-11 -50z" />
    <glyph glyph-name="N" unicode="N" horiz-adv-x="1718" 
d="M1479 1053q0 449 -31 706q-61 119 2 139q29 10 78 6t104 -8q21 -40 7 -72q-13 -32 -24 -56t-20 -50q2 -16 2 -88l-4 -696v-293q0 -147 4 -279v-323q-110 -92 -218 99q-26 46 -46 77l-44 59q-44 59 -186 253t-258 351q-116 156 -321 433t-225 291v-76l-2 -459
q0 -358 -12 -874q35 -61 31 -105t-30 -66q-24 -24 -60 -27q-82 -7 -100 79q-10 42 19 110q21 990 21 1495q-6 55 -25 86q-20 31 -25 51t-1 52q97 33 154 -11q37 -29 108 -145q182 -230 437 -564q255 -335 346 -454t161 -211t113 -147l43 -55v102l2 410v260z" />
    <glyph glyph-name="O" unicode="O" horiz-adv-x="2179" 
d="M1630 254q275 198 312 572q10 110 14 227q-43 233 -169 398t-294 256t-358 105t-363 -49q-208 -44 -347 -228q-101 -133 -158 -328q-30 -104 -38 -195q0 -195 87 -407t188 -297q255 -216 610 -206q308 12 516 152zM1987 1401q122 -285 90 -592q-36 -347 -272 -563
q-277 -253 -783 -262q-38 0 -145 25q-214 50 -380 145q-208 119 -278 299q-98 201 -108 438q-9 237 57 450q155 319 362 448q207 130 564 130q243 7 441 -90q199 -97 313 -223q113 -125 139 -205z" />
    <glyph glyph-name="P" unicode="P" horiz-adv-x="1105" 
d="M305 1769v-798q119 -33 239 -5q34 7 62 11q136 66 196 143q61 77 79 226q-60 263 -191 350q-68 45 -162 59t-223 14zM254 -29q-22 0 -44 3t-38 -1q0 9 -10 9t-20 1q-23 3 3 68q50 259 46 895q-4 635 -37 813q-86 127 18 147q31 5 68 5l153 -6q162 -12 307 -50
q127 -77 198 -185q142 -217 66 -484q-38 -131 -130 -252q-179 -110 -395 -120q-67 -3 -140 -3q2 -90 11 -327t12 -482q-8 -23 -26 -27t-42 -4z" />
    <glyph glyph-name="Q" unicode="Q" horiz-adv-x="2140" 
d="M254 983v-149q73 -389 321 -564q138 -98 289 -137q70 -19 127 -31q178 5 256 21q155 32 269 113q221 188 306 439q60 181 40 389q-37 371 -331 555q-48 30 -86 46t-52 25q-143 39 -267 52t-292 13q-114 -45 -195 -74q-215 -130 -311 -348q-74 -162 -74 -350zM2011 1004
q0 -176 -57 -339q-112 -322 -312 -508q-90 -85 -153 -106v-22q25 -9 95 -53q181 -112 411 -208q701 -293 1560 -329q80 0 168 -3q338 -12 498 95h72l26 -41q-99 -267 -967 -180q-280 26 -605 90t-466 111q-127 14 -362 124t-424 223q-190 113 -213 126q-41 -6 -229 -13
q-320 0 -620 227q-45 34 -69 58t-28 25q-130 153 -188 393t-21 486q36 246 172 386q17 57 77 123q126 140 373 209q125 35 251 33q241 -4 475 -105q276 -162 414 -382q122 -193 122 -420z" />
    <glyph glyph-name="R" unicode="R" horiz-adv-x="2144" 
d="M336 1063q55 -37 207 -102q45 -21 109 1q133 44 248 195q114 150 88 297q-28 167 -286 251q-135 44 -354 54q-32 -44 -14 -595q2 -62 2 -101zM383 84v-33l-21 -14q-8 -6 -24 -12q-66 0 -109 -1t-61 9q-33 18 37 121q-36 629 0 1587q-20 34 -73 69q-11 8 -19 25l19 29
q12 18 30 25t41 16q98 0 191 1q325 3 540 -147q205 -178 216 -357q9 -143 -106 -279q-115 -135 -319 -245q-39 -22 -45 -28q0 -24 99 -131q291 -315 577 -485q230 -137 430 -135q104 1 194 55q48 48 69 57q21 10 42 18q28 -17 47 -45q0 -98 -161 -152q-161 -55 -384 -27
t-381 149q-449 384 -638 598q-38 43 -62 67q-11 1 -59 21q-47 20 -71 30t-26 11h-20q-18 -185 -7 -369t17 -371q23 -29 30 -35t7 -22z" />
    <glyph glyph-name="S" unicode="S" horiz-adv-x="1265" 
d="M307 35q-84 0 -120 19q-36 18 -48 56t-9 92t-3 126q-20 51 -15 86t24 44t49 -9t61 -70q32 -137 56 -172q23 -35 46 -48q22 -13 56 -23t81 -20q47 -9 113 -26q126 0 184 20q112 38 179 126q121 326 -74 571q-110 138 -300 264q-89 59 -179 119q-115 100 -156 202
q-82 204 92 359q84 74 219 117q147 19 260 -6q57 8 88 11t47 -10t22 -48t17 -103q9 -16 23 -36q59 -83 29 -148q-96 -45 -147 95q-11 34 -19 58q-53 33 -101 44t-92 26q-70 0 -140 -26q-151 -56 -189 -182q-19 -65 14 -140q100 -94 222 -177t185 -129q217 -158 336 -427
q102 -336 -80 -552q-27 -32 -47 -49t-20 -20q-154 -91 -377 -81q-156 9 -287 67z" />
    <glyph glyph-name="T" unicode="T" horiz-adv-x="1996" 
d="M1067 1741q-29 -116 -29 -1319q0 -197 9 -307q41 -23 53 -42t4 -83q-33 -4 -92 -14t-138 8q-2 40 0 72t41 77v1616h-649q-49 -80 -85 -98q-36 -17 -54 7t-15 84t33 142q102 -8 177 -8l264 2q202 0 401 -12q86 10 377 12q290 3 377 5q86 1 104 1q26 -21 35 -105t-12 -132
q-12 -5 -26 -7t-36 -10q-20 18 -36 59t-29 52q-183 22 -526 6q-87 -4 -148 -6z" />
    <glyph glyph-name="U" unicode="U" horiz-adv-x="1820" 
d="M199 1898q29 0 61 -7t76 -13q17 -30 -9 -85q-26 -54 -36 -54q-2 -8 -2 -31v-55q0 -37 2 -104t3 -181t3 -281q2 -168 2 -409q13 -52 23 -104t25 -103q33 -113 112 -197q78 -73 229 -119q285 -90 511 27q280 145 327 656q-2 213 4 428t4 426q-16 76 -49 110q-8 47 -2 60
q6 12 43 24q57 0 100 -1q42 -1 62 -15q42 -30 -25 -146q0 -80 4 -192t7 -239q7 -301 -15 -545t-98 -375q-92 -184 -264 -280q-125 -70 -281 -86q-59 -5 -96 -3t-39 6q-333 -13 -556 245q-38 44 -62 82t-36 56q-102 352 -75 1013q6 171 6 337q-37 60 -45 102q27 53 86 53z
" />
    <glyph glyph-name="V" unicode="V" horiz-adv-x="2160" 
d="M1790 1855q30 48 124 49q93 1 122 -49t-72 -116q-65 -104 -158 -295t-201 -413t-250 -525q-141 -304 -182 -390q-41 -87 -59 -126q-8 -14 -16 -8l-8 6l-893 1763l-18 17q-45 45 -58 79q-12 33 0 47q61 8 104 18t71 1q54 -15 54 -158q8 -18 45 -92q37 -75 90 -183
t118 -241q139 -285 248 -512t199 -409l29 -60l40 83q40 83 105 216q64 133 144 298t161 330t153 312q73 147 124 244q4 37 -6 61t-10 53z" />
    <glyph glyph-name="W" unicode="W" horiz-adv-x="2641" 
d="M969 -16q-84 0 -84 14q-71 157 -187 458q-116 302 -170 442t-105 276q-50 136 -112 302q-62 167 -82 242q-39 29 -67 38q-28 10 -40 18q-13 8 -9 26t28 66q95 32 196 20q72 -8 72 -62q-1 -28 -36 -73q0 -22 238 -680q238 -659 311 -827q4 0 21 47t45 123t109 306t163 417
q0 141 -123 462q-29 74 -43 130q-20 14 -43 30q-84 58 -47 115q43 0 101 6q134 14 167 -34q18 -28 -19 -95q0 -70 315 -946q132 -373 216 -565q8 0 202 612t310 899q0 9 -16 25q-70 70 -18 92q57 22 265 4q6 -50 -12 -69q-19 -19 -37 -28t-43 -24q0 -24 -167 -544t-284 -828
q-116 -308 -161 -389q-13 -14 -25 -2t-29 10q-19 -10 -191 374q-171 384 -216 591q-14 -1 -109 -237q-214 -529 -278 -736q4 -2 2 -4t-8 -2z" />
    <glyph glyph-name="X" unicode="X" horiz-adv-x="2082" 
d="M233 1886q45 25 119 25l133 -4q23 -60 19 -75q-4 -16 -9 -24t-6 -24q66 -66 137 -145q70 -79 167 -183t186 -207l37 -41l48 46q409 392 478 572q23 60 -14 81q32 0 58 5t75 8t129 -34q0 -22 -12 -44t-13 -50q-97 -6 -472 -469q-137 -169 -167 -199q0 -20 165 -237
t242 -317t149 -196q72 -95 128 -169q23 -15 56 -27q34 -12 60 -28q62 -38 32 -109q-43 -4 -91 -16q-48 -13 -90 -11q-96 3 -96 142q-49 63 -115 151q-67 88 -138 181l-140 184t-126 166t-93 120t-41 54q-25 -14 -195 -238t-259 -369q-175 -283 -175 -354q-35 -21 -90 -25
q-55 -2 -87 -4t-54 -4q-115 71 -1 128q30 15 56 26q53 70 280 365t324 437t95 157t-109 135q-108 120 -273 302q-164 181 -180 201q-81 32 -103 47t-24 70z" />
    <glyph glyph-name="Y" unicode="Y" horiz-adv-x="2232" 
d="M1190 763q0 -128 3 -216t6 -168t6 -146t3 -100q70 -39 63 -79q-4 -24 -28 -42h-133q-53 0 -82 -2q-25 31 -18 71q6 40 45 56q29 66 25 155q-3 89 -7 139t0 93q-8 109 -9 211t-5 217q-48 55 -186 192q-138 136 -369 364t-267 249q-37 21 -65 29t-59 20l4 72q67 32 143 23
q142 -17 180 -80q8 -18 6 -35q-4 -31 25 -84q11 0 183 -173t294 -293t178 -157q38 0 149 103t136 149q18 18 54 50q259 230 337 360q31 49 41 94q-25 29 -5 49q46 45 158 38t124 -72q6 -34 -43 -87q-48 -3 -187 -125t-544 -558q-117 -124 -134 -124q-22 -65 -22 -193z" />
    <glyph glyph-name="Z" unicode="Z" horiz-adv-x="1912" 
d="M711 10h-578q-18 40 -18 59v35q120 128 511 624q392 496 584 749q192 254 207 282q-243 4 -493 7t-484 -25q-32 -10 -56 -35l-46 -46q-52 -52 -98 -24q0 109 42 202q13 32 27 67q61 0 152 -27q287 0 583 10t592 10q106 -66 -859 -1211q-127 -153 -291 -348t-164 -212
q8 0 53 2t155 3t296 3q187 2 483 2q185 14 319 19q27 39 46 79t50 50q30 10 72 10q12 -74 -12 -142q-44 -126 -107 -153q-45 27 -62 16q-3 -2 -3 7q-520 -13 -901 -13z" />
    <glyph glyph-name="bracketleft" unicode="[" horiz-adv-x="497" 
d="M352 2150q102 0 230 -14q16 -23 33 -38t33 -41t1 -83q-52 0 -74 14t-34 26q-12 11 -31 26q-43 0 -68 2t-54 4t-95 -16l8 -1698q0 -276 -2 -531h252q19 17 27 35t15 32t19 21q12 6 45 5q26 -75 -22 -201q-203 4 -286 -1t-171 -9q-39 23 -42 41t1 51q5 14 17 20t24 15v94
l4 631v387l2 563l2 438v96q-37 17 -47 31t-24 35q10 29 12 36t12 21q111 8 213 8z" />
    <glyph glyph-name="backslash" unicode="\" horiz-adv-x="978" 
d="M981 6l-135 -45q-18 45 -55 136t-92 228t-166 408t-168 415l-193 480q-37 92 -55 139l-101 269q-16 19 31 32q20 6 49 12t60 17q0 -22 137 -389l524 -1300q83 -232 164 -402z" />
    <glyph glyph-name="bracketright" unicode="]" horiz-adv-x="405" 
d="M120 2150q104 0 214 -8q10 -14 12 -21t12 -36q-14 -21 -24 -35t-47 -31v-96l2 -438l2 -563v-387l2 -332l2 -299v-94q12 -8 23 -14t18 -21q4 -33 1 -51t-42 -41q-88 4 -136 7q-118 7 -321 3q-46 129 -22 201q50 3 64 -25q6 -13 14 -31t28 -37h252q-5 337 0 1142
q6 805 6 1087q-66 17 -95 16q-29 -2 -54 -4t-68 -2q-35 -29 -59 -47t-80 -19q-16 57 0 82q16 26 34 42t33 38q125 14 229 14z" />
    <glyph glyph-name="asciicircum" unicode="^" horiz-adv-x="950" 
d="M229 872l-84 2q-47 24 -24 76q10 10 22 12t25 15q0 6 14 20q38 81 120 221q83 140 112 181q14 12 23 21t22 14t53 -15q39 -57 118 -168t154 -266q4 -4 4 -8l7 -12q35 -6 51 -23t-8 -65l-31 -3l-111 3q-2 8 -2 14t-4 14h-8q-42 83 -107 178t-98 162q-10 -7 -76 -106
t-118 -217l-4 -48q-27 -2 -50 -2z" />
    <glyph glyph-name="underscore" unicode="_" horiz-adv-x="1228" 
d="M428 -102h389q362 0 412 10q2 -31 6 -61q4 -29 6 -51t-2 -33t-18 -7h-443q-528 0 -778 13l-4 141q188 -12 432 -12z" />
    <glyph glyph-name="grave" unicode="`" horiz-adv-x="696" 
d="M455 2044l-344 252l112 106l346 -358h-114z" />
    <glyph glyph-name="a" unicode="a" horiz-adv-x="1202" 
d="M381 586l330 -6q59 0 108 6q1 103 -53 366t-75 365q-22 102 -38 184l-24 123l-43 2q-128 -512 -202 -972q-10 -60 -3 -68zM236 -14l-91 2q-47 23 -24 75q10 11 22 13t25 14q21 164 156 809t190 940l104 12q70 0 78 -61q59 -256 171 -864t167 -850q38 -6 46 -17
q21 -25 -3 -71q-10 -2 -18 -2h-45l-78 2q-8 112 -39 234t-53 251l-410 4q-56 0 -92 -4q-37 -115 -56 -392q-3 -44 -5 -71l-2 -22q-27 -2 -43 -2z" />
    <glyph glyph-name="b" unicode="b" horiz-adv-x="874" 
d="M299 1038q70 14 119 36t104 81q39 80 48 178q10 99 -16 187t-88 150t-167 71q-21 -64 -8 -563q2 -77 8 -140zM287 92q0 -2 36 5q86 17 197 102q110 85 125 267q8 97 -33 230q-93 131 -134 164q-74 60 -183 62q0 -104 -11 -376q-10 -271 3 -454zM504 997l-45 -26
q151 -92 223 -212t78 -245t-52 -239t-173 -193q-86 -49 -163 -75t-184 -30q-30 17 -61 54q19 29 25 37t26 24q14 418 12 826t-2 825q-9 7 -57 26q-16 18 -16 74q57 23 136 14t157 -45q181 -83 225 -215q56 -202 38 -320q-23 -150 -167 -280z" />
    <glyph glyph-name="c" unicode="c" horiz-adv-x="1843" 
d="M1386 18q-266 -68 -466 -12q-48 14 -122 32q-73 20 -186 84t-210 159q-345 334 -281 786q23 162 119 340q51 104 143 192q93 89 183 147t208 93q260 78 569 -4q63 -38 86 -41q23 -2 48 0t69 2q30 -15 60 -103q30 -87 30 -153q-82 -54 -131 36q-12 24 -22 46
q-250 192 -551 134q-266 -51 -473 -263q-202 -206 -233 -451q-32 -245 97 -470q97 -168 273 -298q114 -83 197 -118q234 -86 486 -48q251 38 382 242h51q56 -104 -75 -203q-56 -41 -127 -73t-124 -56z" />
    <glyph glyph-name="d" unicode="d" horiz-adv-x="1187" 
d="M317 1765l-18 -815q0 -6 -2 -54q-25 -598 -6 -790q291 -42 459 137q140 150 177 410q36 261 1 505t-97 329q-88 150 -207 227q-119 76 -221 76q-59 0 -86 -25zM121 1815v32q37 64 224 61t364 -105q204 -118 276 -341q136 -370 64 -778q-31 -170 -85 -297t-106 -184
q-86 -103 -173 -149q-146 -76 -360 -72q-94 1 -192 -9q-37 63 -17 90t52 29q14 47 11 79t-7 73v528l2 608v316q0 27 -2 55q-4 16 -18 16q-14 1 -18 7t-11 6q-4 20 -4 35z" />
    <glyph glyph-name="e" unicode="e" horiz-adv-x="1026" 
d="M657 860q-12 -10 -33 -10t-42 13t-29 18q-32 4 -61 4l-185 -17q0 -88 -4 -184q-18 -426 -4 -592h500q20 18 27 36q6 18 14 32t20 20t45 4q24 -70 -22 -200q-273 9 -715 -11q-39 23 -42 41t1 52q6 14 17 20t24 14l4 568v348l2 579v136q-37 16 -47 30l-25 35q15 43 25 57
q55 3 126 9q265 21 431 0q16 -23 34 -38q56 -48 34 -124q-52 0 -74 14t-34 26t-32 25q-188 0 -327 -36q0 -187 12 -445t12 -289l234 -10q12 4 20 11q8 6 23 18t43 12q23 -37 25 -75t3 -91z" />
    <glyph glyph-name="f" unicode="f" horiz-adv-x="862" 
d="M378 1774q-38 0 -48 -4t-21 -5q-26 -517 3 -714q7 -47 14 -56q53 10 109 4t112 -2q91 43 114 -16t-12 -147q-67 0 -90 27q-6 7 -18 11q-47 0 -73 4t-58 6q-32 3 -91 -10q-33 -180 -13 -544q5 -92 5 -185q58 -70 26 -106q-9 -10 -11 -27q-29 -4 -72 1t-96 1q-25 46 -19 64
q5 18 15 32t18 37q0 393 8 797t-8 793q-16 40 -38 65t-32 47q54 81 236 39q27 0 81 6t162 14t164 -18q0 -96 7 -151q-37 -37 -106 1q-32 18 -58 25q-172 11 -210 11z" />
    <glyph glyph-name="g" unicode="g" horiz-adv-x="1820" 
d="M1487 856q-55 0 -152 -9t-153 3q-10 30 -18 60t1 53q53 0 125 3q309 13 398 -10q26 -180 20 -371t-16 -392q-380 -218 -741 -180q-297 31 -531 231q-102 86 -173 185t-104 189q-46 184 -21 410q47 419 327 660q211 181 567 187q184 3 418 -54q24 0 36 7t37 5
q115 -191 109 -268q-57 -57 -120 26q-26 33 -45 72t-30 55q-69 20 -141 28t-139 30q-312 32 -542 -131q-184 -134 -277 -359q-78 -183 -78 -321q-22 -272 100 -463q122 -192 399 -314q61 -27 99 -45q268 -106 621 44q109 49 124 67q2 148 3 294t7 294q-55 14 -110 14z" />
    <glyph glyph-name="h" unicode="h" horiz-adv-x="925" 
d="M125 47q0 29 9 44t20 32q0 82 2 215q17 1143 -43 1497q10 33 14 68q27 0 55 1q28 0 50 -6q53 -15 55 -90q-21 -368 -21 -561t8 -196q158 -15 369 0q33 33 33 497q0 121 -8 213q-10 23 -20 44t-9 37v34q135 66 158 -35q10 -43 4 -103t-10 -118q1 -225 -9 -678t-10 -821
q16 -23 30 -35t15 -36q0 -24 -10 -52q-41 -10 -85 -10t-67 3t-37 19q14 29 20 58t17 57q-1 98 11 291t12 330q0 138 -12 192l-205 2q-125 0 -182 -27q-13 -286 -13 -464t13 -316q47 -119 10 -135q-18 -8 -53 -6t-84 0q-22 16 -27 18v37z" />
    <glyph glyph-name="i" unicode="i" horiz-adv-x="432" 
d="M168 1242q0 294 -2 505q-80 74 -21 129h154q29 -39 22 -70t-30 -84q-12 -246 -12 -1583q36 -20 40 -60q8 -74 -24 -93q-29 2 -53 2h-39l-68 -2h-4q-11 15 -16 62q-5 46 12 61q4 4 9 11t18 15q2 213 8 513t6 594z" />
    <glyph glyph-name="j" unicode="j" horiz-adv-x="489" 
d="M209 297v319q0 172 -4 244q2 217 -9 432t-8 432q-16 29 -33 52q-25 35 -28 82q149 73 254 -7q0 -41 -12 -58q-11 -17 -23 -31t-24 -38q-6 -372 2 -911q9 -539 6 -905q-36 -177 -103 -261q-35 -43 -83 -85t-121 -101l-70 29q0 31 6 46t21 42q150 80 191 223q19 66 27 141
q7 75 17 158q-6 48 -6 197z" />
    <glyph glyph-name="k" unicode="k" horiz-adv-x="1097" 
d="M258 1485q0 -88 6 -177t6 -163q91 108 247 481q36 86 65 146q-6 38 -12 60t24 50q14 2 46 9q78 17 114 -12q20 -17 12 -62q-80 -66 -135 -162q-55 -97 -103 -203t-91 -215q-44 -109 -99 -201q192 -441 350 -737q104 -143 176 -185q39 -24 87 -40t126 -43q15 -9 13 -21
t0 -26q-4 -10 -6 -22t-19 -13q-297 0 -503 362q-84 148 -163 331q-80 183 -120 259h-13v-194l4 -621q18 -36 24 -60t5 -75q-59 -18 -101 -9q-43 9 -61 25t-10 51q4 4 15 32t16 50l-2 1665q-38 21 -41 33t12 64q53 42 97 39q44 -4 66 -28t21 -77q-53 -95 -53 -311z" />
    <glyph glyph-name="l" unicode="l" horiz-adv-x="976" 
d="M154 84q14 0 18 2q4 410 4 838l2 845q-37 37 -37 61t5 32t6 16q47 29 87 32t99 -32q0 -68 -39 -102v-1659l27 -37h153q106 0 221 10q20 8 40 20t53 26q34 15 75 -5q0 -134 -90 -190q-83 36 -266 36q-74 0 -192 -5q-209 -9 -207 46q0 46 14 56q13 10 27 10z" />
    <glyph glyph-name="m" unicode="m" horiz-adv-x="1374" 
d="M291 -51q-41 8 -82 8q-41 1 -49 21t-8 57q65 114 65 1106v504q0 72 2 131q-20 39 -45 41t-47 10q-23 43 -11 65q24 44 109 28q37 -7 66 -22q115 -186 383 -896q20 -52 22 -52q61 182 182 443q120 261 185 434q18 37 49 65q68 60 118 19q26 -20 34 -78l-64 -51v-873
l6 -807q51 -68 38 -115q-3 -11 -3 -20q-38 -24 -121 -11q-22 3 -40 5t-24 8q-6 5 0 19q5 14 16 41t28 73q-9 830 -11 1087q-1 257 -2 433q-26 -89 -128 -330q-103 -241 -165 -385t-77 -192q-21 -16 -29 6q-72 125 -135 293t-140 382q-76 214 -81 214q-5 -32 -9 -164
q-3 -131 -5 -221t-4 -212q-1 -122 -7 -268l-8 -618q9 -25 25 -49q58 -90 -33 -129z" />
    <glyph glyph-name="n" unicode="n" horiz-adv-x="1126" 
d="M854 16q0 10 -4 27q4 39 4 86l-4 432q-122 209 -333 637q-212 428 -218 428v-129q0 -493 4 -835t6 -556q39 -59 26 -89t-45 -40t-70 -8t-48 8q-21 45 -19 64q3 19 31 65q22 434 10 1267q-3 212 -4 409q-96 49 -91 88q6 33 73 34t119 -20q6 -6 13 -31t89 -188
q82 -162 157 -317t182 -365q107 -211 110 -211q27 244 7 786q-5 138 -7 236q-16 23 -30 35t-12 27q1 14 7 36q204 31 204 -22q-2 -22 -20 -47t-20 -31q-31 -922 -5 -1574q5 -151 5 -206q-16 -37 -45 -39t-66 11q-2 8 -4 15t-2 17z" />
    <glyph glyph-name="o" unicode="o" horiz-adv-x="2086" 
d="M492 307q238 -201 578 -192q146 4 273 45q357 115 468 448q32 96 42 200t15 216q-52 286 -232 464q-179 178 -422 234q-243 57 -469 -20q-338 -84 -483 -532q-39 -120 -39 -203q0 -169 85 -370q85 -202 184 -290zM1892 1356q57 -109 84 -251q58 -307 -64 -589
q-133 -312 -490 -444q-185 -70 -447 -70l-45 7q-119 18 -242 63q-377 137 -471 387q-136 284 -93 638q13 108 42 206q151 297 348 422q197 124 541 122q231 7 417 -84t294 -210q107 -119 126 -197z" />
    <glyph glyph-name="p" unicode="p" horiz-adv-x="823" 
d="M297 905q2 0 38 10q86 24 186 124t91 298q-4 106 -59 250q-29 49 -53 83q-46 63 -119 77q-37 6 -90 4q-24 -391 6 -846zM246 -23q-30 11 -54 19t-47 14q-14 55 15 91q8 11 16 24q8 416 4 809t-4 790q-12 27 -37 52t-27 43q-1 18 15 43q43 0 114 2t147 -16
q190 -46 269 -236q171 -503 -194 -742q-57 -37 -103 -55t-53 -22q-21 -120 -15 -319q5 -199 3 -277q8 -33 13 -66t52 -70q9 -73 -77 -81q-23 -3 -37 -3z" />
    <glyph glyph-name="q" unicode="q" horiz-adv-x="2220" 
d="M1134 105q280 -7 526 170q124 88 168 133t46 45q94 193 119 405t-23 414q-170 361 -611 502q-50 16 -81 30q-410 64 -669 -133q-206 -157 -330 -483q-53 -174 -37 -304q8 -67 32 -141t58 -178q4 0 45 -59t131 -142q274 -250 626 -259zM3187 -717q-699 98 -1241 307
q-393 189 -703 402q-417 0 -661 133q-37 31 -82 61q-192 126 -279 299t-108 447q6 63 14 165q22 266 203 490q61 78 153 166q295 151 518 173t537 -85q47 -35 146 -93q189 -110 290 -243q100 -133 129 -338q24 -309 -29 -518q-69 -266 -278 -426q-84 -101 -339 -188
q-46 -16 -46 -23q82 -42 275 -155q193 -112 290 -155q96 -42 204 -80q488 -173 1028 -224q126 -12 233 -8q57 -5 174 25t171 35t83 -15q0 -29 2 -37q-141 -104 -336 -120q-87 -7 -348 5z" />
    <glyph glyph-name="r" unicode="r" horiz-adv-x="1128" 
d="M451 1701q-65 50 -129 50q-32 0 -62 -18q10 -48 13 -174t7 -216t6 -227q3 -137 13 -176q10 8 54 32q113 61 195 161q103 122 67 305q-19 96 -103 213q-31 27 -61 50zM281 473v-143q0 -146 6 -161q18 -44 40 -82q23 -38 23 -44q-17 -43 -69 -43q-23 0 -49 4t-48 0
q-4 2 -11 4q-30 9 -30 68q32 18 33 43q2 27 1 43t1 31l4 749q0 576 -30 782q-6 35 -16 41t-23 15q0 74 76 90q34 6 74 5t75 -1q119 -35 203 -108q171 -149 177 -374q3 -112 -40 -227q-47 -92 -122 -176t-167 -131q38 -82 117 -203q213 -328 384 -477q60 -53 114 -72
q26 -4 50 -2t40 -3q34 -11 34 -78q-48 -45 -98 -31q-49 14 -192 100q-94 61 -209 219q-63 87 -181 268q-118 182 -149 220q-18 -30 -18 -326z" />
    <glyph glyph-name="s" unicode="s" horiz-adv-x="970" 
d="M182 61q-37 0 -69 9q0 190 41 256q31 10 63 10q19 -33 29 -66q10 -34 24 -66q33 -76 111 -112q139 -16 214 28q184 108 116 457q-29 146 -64 206q-35 61 -132 192t-154 218q-113 175 -124 325q-7 82 19 172q33 49 65 92q31 42 79 68q103 55 307 -3q8 -25 20 -59
q50 -138 8 -197h-39q-25 37 -43 84t-47 80q-117 0 -172 -47q-106 -90 -49 -272q27 -84 76 -158q293 -336 366 -638q55 -221 -4 -406q-23 -70 -47 -106t-28 -36q0 -20 -27 -45q-54 -50 -139 -68q-236 -50 -346 82h-54z" />
    <glyph glyph-name="t" unicode="t" horiz-adv-x="1140" 
d="M580 -16h-33q-11 0 -25 -2q-53 16 -57 55t20 69q11 66 11 760t-11 871q-54 46 -273 -18q-48 -13 -75 -13q-52 58 8 160q131 -8 226 -8h59l137 -9q45 6 111 6l297 -6q81 -81 36 -123q-19 -18 -77 -22q-64 59 -261 46q-44 -3 -67 -3q6 -141 6 -246l-10 -874q0 -515 41 -566
q0 -53 -20 -65t-43 -12z" />
    <glyph glyph-name="u" unicode="u" horiz-adv-x="1191" 
d="M1079 1838q0 -50 -51 -79q-8 -215 2 -436q24 -532 7 -804q-23 -371 -211 -495q-99 -67 -271 -51q-57 0 -105 3q-102 6 -167 91q-37 46 -74 130q-63 301 -56 778q3 195 10 391t1 393q-16 11 -26 23t-25 22v74q101 29 170 11q35 -9 39 -40t-52 -90q0 -51 -2 -169
q-20 -1169 70 -1402q38 -53 108 -85q153 -70 298 8q73 39 114 125q52 95 62 483t-3 624q-12 236 -24 400q-29 33 -39 50t-10 38v35q25 18 98 18l121 -2q16 -16 16 -44z" />
    <glyph glyph-name="v" unicode="v" horiz-adv-x="1189" 
d="M928 1890q20 2 41 2t86 -14q25 -52 18 -69q-8 -17 -24 -34t-41 -51q-38 -184 -79 -392t-94 -466t-83 -402q-103 -501 -109 -480q-11 -4 -21 3t-18 -3q-48 186 -116 483t-104 447t-69 290q-33 141 -59 252q-27 112 -43 180t-18 76q-16 20 -38 45q-87 98 -3 139
q112 0 144 -16q70 -35 11 -137q6 -53 45 -222q38 -169 64 -288t56 -237q28 -118 54 -228q88 -379 97 -379q61 174 157 715q37 197 69 397q33 199 42 238q-4 25 -11 45t-14 47t13 55q27 2 47 4z" />
    <glyph glyph-name="w" unicode="w" horiz-adv-x="1701" 
d="M1386 1847q16 19 52 27t70 1q36 -7 61 -34t22 -76q-132 -132 -370 -1441q-23 -121 -39 -206t-25 -116q-23 -14 -33 -16t-47 -2q-19 37 -114 465t-129 534q-2 -2 -44 -249t-74 -418t-77 -318q-42 -11 -54 -3q-11 9 -18 9q-2 2 -16 62t-51 215q-37 154 -215 931
q-53 321 -111 462q-29 71 -68 110q0 125 112 81q34 -13 71 -28q-11 -72 35 -293q155 -734 292 -1208q26 92 46 202t55 302t82 311l-109 621l-31 57q-1 41 39 49t109 -41q0 -17 35 -211t96 -540t110 -536q48 -189 62 -212q4 37 40 196q36 158 60 269q25 111 47 207
q23 96 39 164t23 79q8 45 39 208t33 265q-25 36 -20 57t10 33t5 31z" />
    <glyph glyph-name="x" unicode="x" horiz-adv-x="1177" 
d="M326 -2q-45 -20 -106 -18t-75 0q-53 58 -8 97q14 11 31 27q80 161 150 380q71 220 109 340t85 235q-12 135 -111 338q-39 81 -77 157t-58 154q-44 35 -71 74v63q39 17 103 17t112 -21q0 -53 -6 -65t-9 -20q-4 -8 -6 -32q66 -158 89 -218t46 -118t54 -141q16 16 174 465
q-8 45 -15 71q-6 26 -2 62q35 19 85 21t85 -12t38 -46q3 -31 -58 -77q-98 -231 -169 -443q-71 -213 -73 -223q38 -166 123 -366q86 -199 135 -313t90 -234q29 -16 50 -29t23 -45q1 -31 1 -68q-27 -27 -104 -25q-76 2 -117 25q0 31 19 55t20 48q-121 308 -305 807
q-20 -10 -80 -203t-179 -592q-6 -39 0 -63t7 -64z" />
    <glyph glyph-name="y" unicode="y" horiz-adv-x="1103" 
d="M823 1821v41q63 40 111 28t57 -94q-27 -16 -37 -38t-32 -44q-49 -129 -145 -429t-150 -435l-2 -361q0 -247 -7 -356q8 -14 22 -22q55 -32 24 -127q-38 -20 -86 -15q-47 5 -82 2q-33 55 -19 97q6 18 17 37q10 19 16 51q0 170 1 355t-11 349q-202 602 -238 694
q-36 90 -50 122t-34 75q-20 6 -34 16t-31 17q0 58 8 78q74 18 105 19t96 -26q4 -39 -4 -57t-31 -55q69 -146 160 -425q90 -279 120 -366q14 0 77 203t91 291q29 88 55 167t44 130q-11 40 -11 78z" />
    <glyph glyph-name="z" unicode="z" horiz-adv-x="964" 
d="M115 -10q0 20 -2 28q40 83 147 437q107 353 152 503q230 763 271 746q-159 68 -319 28q-60 -16 -94 -36t-34 -23q-12 12 -11 46t17 69t18 47q23 23 65 23q46 0 169 -16q124 -16 184 -7q16 0 32 6q59 23 113 -31q-210 -546 -474 -1432q-88 -293 -83 -298q84 2 144 7
q197 16 338 -5q27 18 40 61t24 49q11 5 42 -20q0 -60 -9 -118t-46 -105q-130 40 -518 14q-88 -6 -164 -2q-2 9 -2 29z" />
    <glyph glyph-name="braceleft" unicode="{" horiz-adv-x="598" 
d="M496 2150q102 0 229 -14q15 -23 33 -38q56 -48 35 -124q-54 0 -75 14q-22 14 -34 26q-12 11 -31 26q-43 0 -67 2t-54 4q-29 2 -96 -16q0 -379 4 -777l4 4v-145q-40 -35 -80 -71t-62 -55t-22 -22t13 -30q12 -27 51 -77t100 -103v-119l2 -424q0 -196 -4 -410h252
q20 18 34 50t27 38t46 5q25 -74 -23 -201q-202 4 -285 -1t-171 -9q-39 23 -42 41t1 51q6 14 17 20t24 15v94l4 631v192q-60 57 -110 113t-103 96l-19 12l232 217l4 754v100q-37 17 -47 31l-25 35q10 29 12 36t13 21q111 8 213 8z" />
    <glyph glyph-name="bar" unicode="|" 
d="M139 229v1504q0 361 -10 411q32 2 83 9q52 5 62 1t7 -18v-684l-2 -631q1 -400 -3 -582q-4 -183 -5 -285t-3 -153l-141 -4q12 188 12 432z" />
    <glyph glyph-name="braceright" unicode="}" horiz-adv-x="589" 
d="M147 178q0 112 3 457v119q61 53 100 103t51 77t14 31q-21 21 -165 147v145l4 -4q4 398 4 777q-67 17 -96 16q-29 -2 -54 -4t-67 -2q-35 -29 -59 -47t-81 -19q-16 57 0 82q15 26 33 42t35 38q125 14 228 14t214 -8q10 -14 25 -57q-14 -21 -24 -35t-48 -31v-100l4 -754
l232 -217l-19 -12q-53 -39 -102 -95t-111 -114v-192l2 -332l2 -299v-94q12 -8 24 -14t17 -21q4 -33 1 -51t-42 -41q-88 4 -136 7q-118 7 -320 3q-46 131 -23 201q33 2 48 -6t26 -38q12 -30 33 -49h252q-5 265 -5 377z" />
    <glyph glyph-name="asciitilde" unicode="~" horiz-adv-x="1085" 
d="M342 979q-43 0 -73 -25t-56 -90h-107q37 149 92 202q55 52 167 52q66 0 176 -57l55 -27q66 -37 118 -38q52 0 96 54t67 128h110q-49 -313 -293 -314q-69 0 -137 35l-45 27q-57 29 -92 41t-78 12z" />
    <glyph glyph-name="exclamdown" unicode="&#xa1;" 
d="M219 1493q234 -148 27 -264q-92 0 -136 36t-45 81t37 88q39 43 117 59zM133 166q0 540 10 780l142 4q-13 -204 -13 -432l2 -471q0 -368 11 -412q-31 -2 -61 -6t-52 -6t-32 2q-11 4 -7 19v522z" />
    <glyph glyph-name="cent" unicode="&#xa2;" horiz-adv-x="1943" 
d="M258 780q0 -68 43 -164t129 -193t216 -178t304 -114v1645q-301 -31 -479 -226q-146 -149 -199 -400q-41 -192 -14 -370zM1092 1939q201 0 383 -92q29 -1 48 9t48 26q20 -14 50 -53q29 -39 53 -87q58 -118 28 -177q-28 2 -58 6t-59 6q-29 37 -42 63l-30 60
q-210 72 -421 80v-443l-7 -1222q137 -8 299 18q107 40 144 63q36 24 62 40t73 38q17 18 33 38q58 72 135 34q0 -99 -45 -140q-22 -22 -56 -42t-77 -58q-239 -144 -570 -118q-4 -122 -4 -187l-141 -4q0 6 8 205q-226 33 -372 116q-36 22 -48 38q-276 170 -369 472
q-67 217 -30 483q36 256 177 449q58 79 147 153t327 179q117 27 170 35q-5 207 -8 217q32 2 83 9q51 5 61 1t8 -18v-197z" />
    <glyph glyph-name="sterling" unicode="&#xa3;" horiz-adv-x="1517" 
d="M1057 1956q187 0 306 -85q42 -30 69 -69q0 -69 -14 -88q-14 -18 -34 -28q-18 -10 -45 -29l-10 8q-27 96 -104 151q-78 54 -162 54q-163 0 -284 -123q-120 -123 -120 -287q0 -114 5 -182q337 0 387 10q2 -30 6 -60t6 -52t-2 -32q-4 -11 -19 -7h-368l16 -299v-4
q327 0 367 10q2 -31 6 -61q4 -31 6 -53t-2 -34t-18 -8h-367q-16 -173 -73 -320q-58 -147 -150 -225v-6q306 -1 586 13t387 18q16 -47 9 -86t-9 -82h-1340q-15 42 0 133h41q226 0 321 157q74 123 74 378v20h-209q-85 0 -147 2l-4 146q72 -4 159 -3t191 1q-4 18 -7 57t-8 83
t-10 89t-14 76q-67 2 -137 0t-176 2l-4 141l311 -4q0 360 197 537q155 141 387 141z" />
    <glyph glyph-name="currency" unicode="&#xa4;" horiz-adv-x="2158" 
d="M899 1225q362 0 412 10q2 -31 9 -81t2 -62t-19 -9h-482q-206 0 -344 2q-14 -90 -14 -170t10 -135q0 -61 31 -137h391q362 0 412 10q2 -31 6 -61t6 -50q2 -22 -2 -33t-19 -7h-427q-179 0 -289 2q222 -324 662 -384q161 -22 355 13q107 40 144 63q37 24 63 40t72 38
q16 18 32 38q58 72 136 34q0 -99 -45 -140q-23 -22 -57 -42t-76 -58q-198 -120 -472 -122q-215 -4 -432 63q-88 27 -148 57t-75 52q-220 137 -321 350q-35 0 -81 1t-136 3t-123 4l-4 141q186 -12 291 -12q-58 196 -27 447l-256 6l-4 141q174 -12 285 -12q24 114 43 141
q99 215 239 331q108 89 346 195q204 51 318 47q204 -7 379 -92q29 -1 48 9t48 26q20 -14 50 -53t54 -87q58 -118 27 -177q-29 2 -59 6t-58 6q-30 38 -71 123q-458 158 -807 14q-131 -53 -236 -164q-121 -121 -180 -325h393z" />
    <glyph glyph-name="currency" unicode="&#x20ac;" horiz-adv-x="2158" 
d="M899 1225q362 0 412 10q2 -31 9 -81t2 -62t-19 -9h-482q-206 0 -344 2q-14 -90 -14 -170t10 -135q0 -61 31 -137h391q362 0 412 10q2 -31 6 -61t6 -50q2 -22 -2 -33t-19 -7h-427q-179 0 -289 2q222 -324 662 -384q161 -22 355 13q107 40 144 63q37 24 63 40t72 38
q16 18 32 38q58 72 136 34q0 -99 -45 -140q-23 -22 -57 -42t-76 -58q-198 -120 -472 -122q-215 -4 -432 63q-88 27 -148 57t-75 52q-220 137 -321 350q-35 0 -81 1t-136 3t-123 4l-4 141q186 -12 291 -12q-58 196 -27 447l-256 6l-4 141q174 -12 285 -12q24 114 43 141
q99 215 239 331q108 89 346 195q204 51 318 47q204 -7 379 -92q29 -1 48 9t48 26q20 -14 50 -53t54 -87q58 -118 27 -177q-29 2 -59 6t-58 6q-30 38 -71 123q-458 158 -807 14q-131 -53 -236 -164q-121 -121 -180 -325h393z" />
    <glyph glyph-name="yen" unicode="&#xa5;" horiz-adv-x="2232" 
d="M944 819h117l-2 133q-48 55 -186 192q-138 136 -369 364t-267 249q-37 21 -65 29t-59 20l4 72q67 32 143 23q142 -17 180 -80q8 -18 6 -35q-4 -31 25 -84q11 0 183 -173t294 -293t178 -157q38 0 149 103t136 149q18 18 54 50q259 230 337 360q31 49 41 94q-25 29 -5 49
q46 45 158 38t124 -72q6 -34 -43 -87q-48 -3 -187 -125t-544 -558q-117 -124 -134 -124q-16 -45 -20 -137h141q362 0 412 10q2 -31 6 -61t6 -50q2 -22 -2 -33t-18 -7h-547q0 -99 4 -195h147q375 0 412 11q2 -31 6 -55t6 -39t-2 -21t-18 -2h-547q10 -200 10 -244
q70 -39 63 -79q-4 -24 -28 -42h-133q-54 0 -82 -2q-25 31 -18 71q6 40 45 56q32 72 22 240q-342 5 -553 12l-4 107q204 -13 432 -13h119v21q0 10 2 20q-4 39 -5 77t-3 77q-335 5 -549 12l-4 141q188 -12 432 -12z" />
    <glyph glyph-name="brokenbar" unicode="&#xa6;" 
d="M139 1764q0 330 -10 380q32 2 83 9q52 5 62 1t7 -18v-459q0 -116 -13 -428l-141 -4q12 189 12 519zM141 318q0 334 -10 389q31 2 81 9t62 2t9 -20v-458q0 -129 -13 -441l-141 -4q12 189 12 523z" />
    <glyph glyph-name="section" unicode="&#xa7;" horiz-adv-x="1384" 
d="M602 686l10 -2q33 -33 85 -76q230 -191 298 -354q47 33 80 78q66 178 41 315q-46 252 -315 448q-125 91 -258 177q-139 -18 -230 -116q-91 -99 -34 -228q115 -125 234 -194q40 -23 89 -48zM889 66q-2 12 -2 29q-1 17 -11 45t-34 84t-81 128q-102 126 -294 256
q-86 57 -174 115q-113 97 -155 197q-84 200 78 352q79 74 206 119q-131 174 -56 336t312 237q147 19 260 -6q57 8 88 11t47 -10q17 -13 23 -48t16 -103q8 -16 32 -49t28 -71t-9 -64q-95 -44 -146 95q-11 34 -20 59q-50 29 -100 42q-51 13 -74 19q-154 0 -259 -97
q-50 -46 -69 -111t13 -140q108 -102 223 -180t178 -124q215 -157 334 -421q49 -164 31 -282t-60 -194t-86 -113q-43 -38 -43 -42q-17 -11 -49 -26q41 -227 -64 -404q-40 -67 -78 -99t-38 -34q-161 -95 -377 -76q-159 14 -286 72q-84 0 -120 20q-62 35 -58 153q3 56 -3 128
q-20 51 -15 86t25 44t49 -9q30 -18 60 -70q25 -102 47 -150t56 -72t92 -35t157 -36q125 1 184 19q113 36 179 123q59 161 43 297z" />
    <glyph glyph-name="dieresis" unicode="&#xa8;" horiz-adv-x="782" 
d="M584 2144q-68 45 -83 93t64 92q63 0 95 -25q32 -24 33 -56t-27 -62t-82 -42zM176 2142q-74 43 -85 92q-11 50 67 93q63 0 94 -25q31 -24 32 -56t-27 -63t-81 -41z" />
    <glyph glyph-name="copyright" unicode="&#xa9;" horiz-adv-x="1980" 
d="M1438 545q53 -95 -134 -184q-46 -22 -83 -37q-187 -44 -312 -10q-31 10 -81 23t-125 56q-161 92 -259 255t-68 376t197 375q167 161 411 166q95 2 208 -29q41 -25 56 -27q16 -2 32 -1t47 1q34 -11 54 -121q5 -28 5 -49q-62 -43 -102 56q-166 98 -345 62t-299 -164
q-120 -127 -136 -275q-25 -173 61 -325q87 -152 264 -253q37 -20 50 -24q325 -61 524 129h35zM125 967q0 -57 25 -165q24 -108 64 -204q85 -207 186 -291q257 -215 610 -205q308 12 516 152q277 200 311 572q10 110 14 227q-43 233 -169 398t-294 256t-358 105t-362 -49
q-208 -45 -347 -228q-60 -79 -99 -166q-97 -222 -97 -402zM1882 1401q123 -289 90 -592q-36 -346 -271 -563q-277 -253 -783 -262q-39 0 -146 25q-214 50 -380 145q-209 120 -277 299q-97 198 -108 437q-10 239 56 451q156 320 363 449t563 129q243 7 441 -90
q199 -97 313 -223q113 -125 139 -205z" />
    <glyph glyph-name="guillemotleft" unicode="&#xab;" horiz-adv-x="1374" 
d="M745 290q0 -66 -37 -87t-83 53q-108 65 -284 230q-65 60 -125 112t-116 78q-6 4 -6 20l4 49l539 420q2 1 19 19t43 32t40 3q7 -45 13 -81t0 -62q-12 -54 -113 -54q-53 -27 -177 -137q-124 -111 -153 -137t-30 -27l15 -32q38 -81 161 -186q68 -58 172 -114q27 -2 43 5
t39 7q18 -12 27 -48q9 -35 9 -63zM1272 265q0 -67 -37 -88q-37 -20 -84 54q-113 68 -284 231q-65 60 -125 111t-115 78q-6 4 -6 21l4 49l538 420q76 76 103 53q6 -45 12 -81q6 -35 0 -61q-12 -53 -113 -55q-46 -23 -194 -153t-166 -148l15 -31q37 -80 133 -162
q96 -83 200 -138q27 -2 43 5t39 7q17 -12 27 -48t10 -64z" />
    <glyph glyph-name="logicalnot" unicode="&#xac;" horiz-adv-x="2564" 
d="M590 621l-6 305q36 4 68 8t28 -12l-2 -301h-88zM1751 924q0 -80 8 -174h15q77 0 110 6q98 39 136 117q37 78 -31 157q-34 17 -80 33q-29 0 -158 27v-166zM934 549q112 4 222 1t220 -1q-56 137 -119 271q-62 134 -106 243q-5 0 -66 -138t-107 -256t-44 -120zM1854 86
q113 0 198 48q114 65 148 208q0 182 -135 262q-115 71 -300 53q-6 -12 -8 -18q3 -133 1 -269t14 -274q-6 -2 18 -6q22 -4 64 -4zM1669 1714q-233 0 -475 8q-10 -195 -10 -282l4 -277q42 -52 29 -73q42 -81 207 -440t243 -490l6 626q0 143 -4 297q-4 17 -23 21t-26 8
q-6 31 -3 41t32 27q47 -4 99 -5t105 -10v183l-6 366h-178zM457 14q-94 0 -183 -10q-34 6 -66 3t-56 -3t-39 10q-14 10 -15 47q32 14 36 111q1 23 3 35v262q0 53 -1 107t-2 124t-2 165t-3 231q-49 64 -39 84t57 20h74l21 -16v-47q-52 -70 -32 -267q5 -49 7 -92l4 -518
q0 -78 -2 -115t2 -51q17 -10 139 -10t269 10l10 10q96 235 218 496q122 262 158 341t64 138q-14 3 -11 19t26 57q2 68 5 162t5 298q2 203 3 339t-3 221l-2 4q-65 6 -187 6t-233 -6q-9 -26 -13 -294q-5 -269 -5 -455t6 -265q22 -12 30 -23t5 -52q-20 -2 -47 -8t-89 3
q0 23 1 43t26 50v1005h-408q-32 -49 -54 -62t-32 1q-25 36 13 139q61 -6 108 -6l164 2q84 0 248 -8q70 10 465 10q32 12 62 16t65 -28q14 -34 -26 -62q-9 -6 -13 -10l2 -365q118 -8 270 -8h135q238 0 256 6q2 16 3 38t4 46q0 152 -5 260q-4 20 -10 35q-10 8 -29 21
q-32 22 1 55l32 -2q23 10 55 9t52 -9h28q82 0 172 -4q133 14 201 4q25 -82 25 -131q-12 -8 -18 -9t-31 3q-24 17 -45 49q-10 2 -18 4q-17 4 -68 4h-258q2 -139 0 -258q10 -142 10 -174q4 -2 12 -2h234q61 29 88 23t34 -64q0 -51 -34 -70q-35 -18 -80 27l-248 4
q-14 -35 -14 -134v-144q0 -232 8 -236l213 -8q134 0 215 39q18 45 69 20q10 -94 -40 -119q-34 -18 -66 0q-112 3 -279 -6q68 -60 68 -172q0 -76 -116 -159q-22 -16 -21 -27q133 -39 203 -104q131 -121 95 -281t-143 -251q-49 -42 -92 -48q-98 -25 -187 -28t-185 -9
q-32 16 -52 22t-22 29l-2 6l6 11v6q2 4 2 16q-156 288 -199 381h-205l-249 -2h-80l-199 -457q-20 -4 -39 0q-96 2 -190 2z" />
    <glyph glyph-name="registered" unicode="&#xae;" horiz-adv-x="1366" 
d="M573 1329q31 -13 75 9t82 64t56 94t-2 100t-92 84t-215 42q-17 -21 -11 -167q5 -146 5 -175q39 -26 102 -51zM418 868q-20 0 -33 6t21 58q-16 325 0 782q-12 20 -24 26t-22 21q12 17 18 21t28 12q49 0 94 1q155 3 266 -73q227 -193 -20 -381q-38 -29 -70 -46t-35 -21
q0 -6 48 -65t144 -137q97 -78 166 -116q113 113 130 318q5 59 8 121q-27 143 -105 244q-156 202 -399 221q-117 8 -223 -31q-106 -23 -172 -93q-117 -125 -148 -291q-12 -65 -12 -103t20 -133q20 -96 71 -173q50 -77 83 -104q147 -126 348 -121q201 4 336 92l4 4
q-10 3 -18 11t-19 14q-12 12 -46 42t-76 68t-88 81q-46 42 -88 77q-41 35 -71 61t-40 29h-23q-10 -92 -4 -182t10 -182q10 -14 13 -18t4 -11v-16q-12 -8 -23 -13h-53zM1016 874q-171 -130 -453 -137l-29 4q-65 9 -152 38q-148 50 -242 141q-46 45 -70 106q-56 113 -63 265
q-8 152 32 280q97 198 223 276t345 80t389 -129q120 -94 170 -214q22 -52 37 -142q32 -192 -33 -360q-34 -87 -101 -156q130 -45 213 6q22 22 55 37q13 -6 23 -23q0 -30 -32 -52t-81 -32q-114 -23 -231 12z" />
    <glyph glyph-name="macron" unicode="&#xaf;" horiz-adv-x="704" 
d="M610 2281q-81 9 -253 9t-195 -6q-24 -6 -49 -13l12 144q42 -7 156 -7h221q56 0 119 15z" />
    <glyph glyph-name="degree" unicode="&#xb0;" horiz-adv-x="555" 
d="M274 1544q45 0 77 32t32 79t-32 79t-77 32q-44 0 -76 -32t-32 -79t32 -79t76 -32zM74 1656q0 84 58 141q58 58 142 58t142 -58t59 -142q0 -84 -58 -143q-59 -58 -142 -58t-142 59t-59 143z" />
    <glyph glyph-name="plusminus" unicode="&#xb1;" horiz-adv-x="1081" 
d="M431 369h327q177 0 219 10q2 -31 6 -61t6 -52t-2 -32q-4 -11 -18 -7h-492q-47 0 -88 1t-120 3t-177 9l-4 141q156 -12 343 -12zM625 1077q311 0 354 10q2 -31 6 -61t6 -50q2 -22 -2 -33t-18 -7h-346q0 -47 -2 -89t-3 -87q-2 -45 -4 -96t-4 -119l-145 -4q10 160 12 395
q-47 0 -88 1t-114 3t-183 8l-4 142q156 -12 389 -13q-4 305 -10 353q31 2 81 9t64 2t11 -20v-344z" />
    <glyph glyph-name="acute" unicode="&#xb4;" horiz-adv-x="696" 
d="M240 2048h-113l344 358l115 -106z" />
    <glyph glyph-name="mu" unicode="&#xb5;" horiz-adv-x="1351" 
d="M553 4q-220 0 -324 123q0 -375 -10 -705l-108 -4q12 188 12 432l-8 1371q-15 12 -29 27t-29 26v74q101 29 181 11q39 -9 46 -40t-48 -90q0 -78 -4 -203q-19 -536 71 -778q39 -53 109 -85t148 -32q230 0 306 272q33 118 23 341t-31 468q-49 56 -49 88v35q27 19 98 19
l121 -2q16 -16 16 -55t-51 -68q24 -454 17 -659q-7 -206 -56 -392q32 0 58 -17t42 -23t46 -5q20 7 40 19t53 27q34 15 75 -5q0 -134 -90 -190q-112 49 -281 51l-201 -17q-59 -14 -143 -14z" />
    <glyph glyph-name="paragraph" unicode="&#xb6;" horiz-adv-x="1523" 
d="M1302 -8h-38l-66 -2h-6q-21 41 -16 78q4 36 14 45q2 6 -7 13t1 15q2 213 11 640t3 970q5 16 -137 33q-35 4 -57 10v-22q0 -10 -4 -43t-23 -393q-17 -360 -17 -774t7 -511q26 -66 5 -68q-10 -1 -20 0t-10 -10q-16 4 -53 1t-60 -3t-42 4t-27 27q0 90 3 194t6 212
q3 106 7 209t6 194q-176 0 -256 15q-150 28 -278 108q-186 245 -152 506q16 124 87 232t198 183q139 35 307 50h74q128 0 594 -23q14 -18 42 -52t40 -63t-4 -43t-86 5q-13 -400 -13 -1586q37 -16 44 -75t-25 -78q-30 2 -52 2z" />
    <glyph glyph-name="periodcentered" unicode="&#xb7;" horiz-adv-x="503" 
d="M236 819q-166 105 -108 197q22 33 81 63q92 0 136 -35q44 -36 45 -80q2 -44 -38 -88t-116 -57z" />
    <glyph glyph-name="periodcentered" unicode="&#x2219;" horiz-adv-x="503" 
d="M236 819q-166 105 -108 197q22 33 81 63q92 0 136 -35q44 -36 45 -80q2 -44 -38 -88t-116 -57z" />
    <glyph glyph-name="cedilla" unicode="&#xb8;" horiz-adv-x="800" 
d="M184 -182q-20 0 -28 2q-8 4 -17 19q-8 15 -8 26q-68 102 8 272q3 0 11 1t18 -2q26 -8 31 -32q-33 -76 -31 -118t31 -76q319 85 452 -24q57 -46 69 -114q25 -138 -68 -252q-42 -52 -93 -65q-10 -24 -131 -46t-174 -6q-53 15 -69 28q-36 28 -15 71q6 0 39 6
q113 -37 202 -15t143 72t67 113q12 62 -26 110t-132 62t-256 -32h-23z" />
    <glyph glyph-name="guillemotright" unicode="&#xbb;" horiz-adv-x="1374" 
d="M631 291q0 27 9 63t28 47q23 0 39 -7t43 -5q179 94 278 220q39 48 54 80l16 32q-35 35 -180 160t-181 141q-102 0 -112 54q-6 26 0 62t12 81q14 12 48 -6t54 -48l539 -420l4 -49q0 -16 -6 -20q-81 -40 -250 -197q-169 -158 -274 -223q-49 -74 -85 -53t-36 88zM752 721
l4 -49q0 -17 -6 -21q-77 -38 -241 -189q-65 -60 -135 -122t-149 -109q-48 -73 -83 -53t-38 88q0 27 10 63q9 36 27 48q23 0 39 -7t43 -5q179 95 279 220q39 48 54 80l15 31q-48 48 -184 164t-176 137q-100 0 -113 55q-6 26 0 62t13 80q14 12 40 -2t43 -32t19 -19z" />
    <glyph glyph-name="questiondown" unicode="&#xbf;" horiz-adv-x="1277" 
d="M838 1526q233 -148 26 -264q-92 0 -136 36t-45 80t38 88t117 60zM111 91q1 85 29 183t83 165q55 68 170 132q47 27 82 62q115 59 199 121q10 23 23 43t24 37q8 68 15 102q8 34 24 48q16 13 47 10t88 -11q28 -51 -23 -159q-27 -60 -86 -144q-82 -59 -215 -139t-194 -144
q-61 -63 -85 -130q-50 -141 38 -367q91 -121 263 -138q50 -4 99 -4q98 25 156 36t94 35q35 24 56 72q22 48 46 150q31 51 61 69q62 38 74 -34q5 -35 -16 -86q-6 -72 -3 -128q6 -117 -58 -153q-37 -20 -119 -20q-231 -103 -476 -65q-97 15 -188 69q-1 2 -23 16t-51 42
q-84 79 -109 162t-25 168z" />
    <glyph glyph-name="Agrave" unicode="&#xc0;" horiz-adv-x="2086" 
d="M1116 2093l-344 252l113 106l346 -358h-115zM645 872q179 8 359 4t358 -4q-59 152 -189 435t-176 397q-15 0 -188 -411q-173 -412 -164 -421zM1970 66q0 -2 -3 -6t-7 -21q-58 -54 -129 -36q-71 19 -92 77q10 16 11 22t1 29q-49 94 -138 254t-181 363h-334l-402 -3h-131
q-44 -68 -62 -107q-76 -176 -216 -466q-7 -31 6 -54q12 -22 19 -34q22 -36 -27 -64q-48 -28 -94 -17t-70 39t5 70q11 15 26 26q14 11 16 18q135 342 544 1212q71 152 129 277t95 202q14 11 23 21t21 14t54 -14q71 -103 446 -918q366 -796 480 -874q10 -8 10 -10z" />
    <glyph glyph-name="Aacute" unicode="&#xc1;" horiz-adv-x="2086" 
d="M881 2111h-113l344 359l115 -107zM645 872q179 8 359 4t358 -4q-59 152 -189 435t-176 397q-15 0 -188 -411q-173 -412 -164 -421zM1970 66q0 -2 -3 -6t-7 -21q-58 -54 -129 -36q-71 19 -92 77q10 16 11 22t1 29q-49 94 -138 254t-181 363h-334l-402 -3h-131
q-44 -68 -62 -107q-76 -176 -216 -466q-7 -31 6 -54q12 -22 19 -34q22 -36 -27 -64q-48 -28 -94 -17t-70 39t5 70q11 15 26 26q14 11 16 18q135 342 544 1212q71 152 129 277t95 202q14 11 23 21t21 14t54 -14q71 -103 446 -918q366 -796 480 -874q10 -8 10 -10z" />
    <glyph glyph-name="Acircumflex" unicode="&#xc2;" horiz-adv-x="2086" 
d="M645 872q179 8 359 4t358 -4q-59 152 -189 435t-176 397q-15 0 -188 -411q-173 -412 -164 -421zM1970 66q0 -2 -3 -6t-7 -21q-58 -54 -129 -36q-71 19 -92 77q10 16 11 22t1 29q-49 94 -138 254t-181 363h-334l-402 -3h-131q-44 -68 -62 -107q-76 -176 -216 -466
q-7 -31 6 -54q12 -22 19 -34q22 -36 -27 -64q-48 -28 -94 -17t-70 39t5 70q11 15 26 26q14 11 16 18q135 342 544 1212q71 152 129 277t95 202q14 11 23 21t21 14t54 -14q71 -103 446 -918q366 -796 480 -874q10 -8 10 -10zM805 2038l-90 2q-47 24 -25 76q10 10 22 12t25 14
q0 6 15 21q75 158 182 321q14 12 23 22t21 13q12 4 54 -14q18 -29 57 -86t95 -162q57 -105 57 -115l6 -12q37 -6 46 -16q21 -24 -3 -72l-30 -2l-111 2q-2 8 -2 14t-4 15h-8q-27 53 -44 87t-42 77t-52 96q-64 -64 -145 -244l-4 -47q-27 -2 -43 -2z" />
    <glyph glyph-name="Atilde" unicode="&#xc3;" horiz-adv-x="2086" 
d="M1116 2142q-59 0 -115 25l-36 16q-80 39 -128 39q-49 0 -73 -16t-47 -64h-88q35 113 88 162t128 49t161 -39l45 -20q59 -27 98 -27q84 0 123 96h88q-43 -221 -244 -221zM645 872q179 8 359 4t358 -4q-59 152 -189 435t-176 397q-15 0 -188 -411q-173 -412 -164 -421z
M1970 66q0 -2 -3 -6t-7 -21q-58 -54 -129 -36q-71 19 -92 77q10 16 11 22t1 29q-49 94 -138 254t-181 363h-334l-402 -3h-131q-44 -68 -62 -107q-76 -176 -216 -466q-7 -31 6 -54q12 -22 19 -34q22 -36 -27 -64q-48 -28 -94 -17t-70 39t5 70q11 15 26 26q14 11 16 18
q135 342 544 1212q71 152 129 277t95 202q14 11 23 21t21 14t54 -14q71 -103 446 -918q366 -796 480 -874q10 -8 10 -10z" />
    <glyph glyph-name="Adieresis" unicode="&#xc4;" horiz-adv-x="2086" 
d="M1182 2159q-114 69 -72 138q14 24 55 46q63 0 95 -25q32 -24 32 -56t-28 -62t-82 -41zM776 2154q-74 42 -85 93t67 92q63 0 94 -25q31 -24 32 -56t-27 -63t-81 -41zM645 872q179 8 359 4t358 -4q-59 152 -189 435t-176 397q-15 0 -188 -411q-173 -412 -164 -421zM1970 66
q0 -2 -3 -6t-7 -21q-58 -54 -129 -36q-71 19 -92 77q10 16 11 22t1 29q-49 94 -138 254t-181 363h-334l-402 -3h-131q-44 -68 -62 -107q-76 -176 -216 -466q-7 -31 6 -54q12 -22 19 -34q22 -36 -27 -64q-48 -28 -94 -17t-70 39t5 70q11 15 26 26q14 11 16 18
q135 342 544 1212q71 152 129 277t95 202q14 11 23 21t21 14t54 -14q71 -103 446 -918q366 -796 480 -874q10 -8 10 -10z" />
    <glyph glyph-name="Aring" unicode="&#xc5;" horiz-adv-x="2086" 
d="M1004 2140q44 0 76 32t32 79t-32 79t-76 32t-77 -32q-32 -32 -32 -79t32 -79t77 -32zM803 2252q0 84 58 141q59 58 143 58t142 -58t58 -142q0 -85 -58 -143t-142 -58t-142 59q-59 59 -59 143zM645 872q179 8 359 4t358 -4q-59 152 -189 435t-176 397q-15 0 -188 -411
q-173 -412 -164 -421zM1970 66q0 -2 -3 -6t-7 -21q-58 -54 -129 -36q-71 19 -92 77q10 16 11 22t1 29q-49 94 -138 254t-181 363h-334l-402 -3h-131q-44 -68 -62 -107q-76 -176 -216 -466q-7 -31 6 -54q12 -22 19 -34q22 -36 -27 -64q-48 -28 -94 -17t-70 39t5 70
q11 15 26 26q14 11 16 18q135 342 544 1212q71 152 129 277t95 202q14 11 23 21t21 14t54 -14q71 -103 446 -918q366 -796 480 -874q10 -8 10 -10z" />
    <glyph glyph-name="AE" unicode="&#xc6;" horiz-adv-x="2795" 
d="M811 872q180 8 358 4t359 -4q-27 156 -67 325t-75 331l-43 166q-77 -99 -308 -457t-224 -365zM1923 1079q53 0 125 -2q90 50 125 42q35 -9 53 -35t37 -72q21 -85 -31 -112q-51 -27 -137 44l-399 4q-14 -54 51 -302q18 -73 42 -168t48 -191q40 -117 72 -170q74 -2 227 -9
q297 -14 432 60q12 78 105 33q56 -148 -18 -193q-27 -16 -61 -12t-46 12q-205 4 -415 -8t-409 -12q-25 25 -30 45l-13 41q27 12 32 18t16 35q-15 59 -29 119q-27 119 -62 226q-35 106 -71 276h-334l-402 -3h-131q-70 -82 -112 -145q-148 -221 -297 -428q-15 -27 -8 -52
l12 -36t4 -18q-20 -49 -99 -62q-32 -4 -60 3t-36 24q-37 52 43 107q16 11 21 18q325 506 1017 1489q87 125 140 202q23 17 35 27t29 8q45 27 145 27t242 -6q59 6 148 13t179 -7q67 -132 88 -211q-21 -16 -38 -14q-17 1 -39 4q-49 37 -93 79q-52 13 -120 13h-441
q32 -112 93 -355t98 -344q12 -4 20 -4l160 2h92z" />
    <glyph glyph-name="Ccedilla" unicode="&#xc7;" horiz-adv-x="1943" 
d="M895 -221q-21 0 -29 2q-8 4 -16 19t-8 26q-52 82 -19 201q-119 29 -199 65t-98 64q-276 170 -369 472q-67 217 -30 483q36 256 177 449q58 79 147 153t327 179q205 51 318 47q204 -7 379 -92q29 -1 48 9t48 26q20 -14 50 -53q29 -39 53 -87q58 -118 28 -177q-28 2 -58 6
t-59 6q-29 37 -42 63l-30 60q-458 158 -806 14q-131 -53 -236 -164q-146 -149 -199 -400q-41 -192 -14 -370q0 -132 124 -298q232 -310 657 -362q157 -19 345 13q107 40 144 63q36 24 62 40t73 38q17 18 33 38q58 72 135 34q0 -99 -45 -140q-22 -22 -56 -42t-77 -58
q-305 -179 -764 -94q-29 -88 20 -141q320 86 453 -24q58 -47 70 -115t-8 -134t-61 -117q-42 -52 -93 -65q-10 -24 -132 -46t-174 -6t-68 28q-37 29 -15 71q13 0 39 7q114 -38 202 -16t143 72q54 50 66 114t-25 110q-38 48 -132 62t-256 -33h-23z" />
    <glyph glyph-name="Egrave" unicode="&#xc8;" horiz-adv-x="1136" 
d="M702 2097l-344 252l113 107l346 -359h-115zM414 1925q133 0 274 -6q62 6 152 13t176 -7q36 -135 37 -211q-25 -15 -41 -13q-16 1 -39 3q-38 35 -72 80q-48 12 -116 12h-443q-20 -35 -1 -330q5 -78 9 -150t8 -131q4 -58 4 -87q8 -4 19 -4l160 2h92q53 0 125 -2
q100 47 143 38t55 -104q0 -86 -56 -110q-59 -27 -128 43l-399 4q-23 -46 -23 -434t10 -398l347 -10q217 0 346 61q32 74 114 33q17 -150 -64 -192q-32 -16 -65 -12t-43 12q-203 3 -417 -9t-412 -12q-19 27 -21 45v41q38 16 43 28q6 11 15 25q4 416 8 829t-8 818
q-10 18 -33 30q-54 29 -57 61q-2 19 28 48q140 -4 273 -4z" />
    <glyph glyph-name="Eacute" unicode="&#xc9;" horiz-adv-x="1136" 
d="M489 2103h-112l344 359l115 -107zM414 1925q133 0 274 -6q62 6 152 13t176 -7q36 -135 37 -211q-25 -15 -41 -13q-16 1 -39 3q-38 35 -72 80q-48 12 -116 12h-443q-20 -35 -1 -330q5 -78 9 -150t8 -131q4 -58 4 -87q8 -4 19 -4l160 2h92q53 0 125 -2q100 47 143 38
t55 -104q0 -86 -56 -110q-59 -27 -128 43l-399 4q-23 -46 -23 -434t10 -398l347 -10q217 0 346 61q32 74 114 33q17 -150 -64 -192q-32 -16 -65 -12t-43 12q-203 3 -417 -9t-412 -12q-19 27 -21 45v41q38 16 43 28q6 11 15 25q4 416 8 829t-8 818q-10 18 -33 30
q-54 29 -57 61q-2 19 28 48q140 -4 273 -4z" />
    <glyph glyph-name="Ecircumflex" unicode="&#xca;" horiz-adv-x="1136" 
d="M414 1925q133 0 274 -6q62 6 152 13t176 -7q36 -135 37 -211q-25 -15 -41 -13q-16 1 -39 3q-38 35 -72 80q-48 12 -116 12h-443q-20 -35 -1 -330q5 -78 9 -150t8 -131q4 -58 4 -87q8 -4 19 -4l160 2h92q53 0 125 -2q100 47 143 38t55 -104q0 -86 -56 -110
q-59 -27 -128 43l-399 4q-23 -46 -23 -434t10 -398l347 -10q217 0 346 61q32 74 114 33q17 -150 -64 -192q-32 -16 -65 -12t-43 12q-203 3 -417 -9t-412 -12q-19 27 -21 45v41q38 16 43 28q6 11 15 25q4 416 8 829t-8 818q-10 18 -33 30q-54 29 -57 61q-2 19 28 48
q140 -4 273 -4zM403 2030q-16 0 -30 1l-28 2t-32 -1q-47 23 -24 75q10 11 22 13t25 14q0 6 14 20q77 162 182 322q14 12 28 26t31 9q17 -4 40 -14q18 -29 57 -86t95 -162q57 -105 57 -115l6 -12q36 -6 46 -17q21 -23 -3 -71l-31 -2l-110 2q-2 8 -3 14q0 6 -4 14h-8
q-27 53 -43 85q-16 31 -42 77t-52 98q-65 -65 -145 -243l-5 -47q-27 -2 -43 -2z" />
    <glyph glyph-name="Edieresis" unicode="&#xcb;" horiz-adv-x="1239" 
d="M741 2159q-115 70 -71 138q14 24 55 46q63 0 94 -25q31 -24 32 -56t-28 -62t-82 -41zM336 2154q-74 42 -85 93t66 92q63 0 95 -25q65 -51 5 -119q-28 -31 -81 -41zM117 1946l549 -11q61 7 151 13t176 -9q35 -128 35 -208q-16 -13 -26 -15t-52 4q-35 28 -71 80
q-48 12 -116 12h-444q-22 -44 17 -611q4 -58 4 -87q8 -6 18 -6l158 2h92q55 0 127 -2q102 50 134 41q33 -8 45 -33t20 -72q0 -87 -59 -112t-125 43l-400 6q-22 -50 -22 -437t10 -397l346 -10q206 0 344 62q37 75 117 34q17 -152 -66 -192q-33 -16 -65 -12t-41 12
q-203 2 -417 -9t-413 -12q-20 28 -20 43v41q33 14 40 27q7 12 15 27q6 416 10 830t-10 816q-10 18 -47 40t-40 46t26 56z" />
    <glyph glyph-name="Igrave" unicode="&#xcc;" 
d="M168 1242q0 294 -2 505q-80 74 -21 129h154q29 -39 22 -70t-30 -84q-12 -246 -12 -1583q36 -20 40 -60q8 -74 -24 -93q-29 2 -53 2h-39l-68 -2h-4q-11 15 -16 62q-5 46 12 61q4 4 9 11t18 15q2 213 8 513t6 594zM317 2111l-344 252l113 107l346 -359h-115z" />
    <glyph glyph-name="Iacute" unicode="&#xcd;" 
d="M168 1242q0 294 -2 505q-80 74 -21 129h154q29 -39 22 -70t-30 -84q-12 -246 -12 -1583q36 -20 40 -60q8 -74 -24 -93q-29 2 -53 2h-39l-68 -2h-4q-11 15 -16 62q-5 46 12 61q4 4 9 11t18 15q2 213 8 513t6 594zM80 2095h-113l344 359l115 -107z" />
    <glyph glyph-name="Icircumflex" unicode="&#xce;" horiz-adv-x="483" 
d="M123 80q0 28 17 56t36 57q-6 391 -7 786t-3 786q-10 27 -32 56t-21 73q27 10 58 26q49 26 198 -24q-11 -44 -25 -70t-49 -57v-407l-10 -985q0 -88 2 -195q2 -10 13 -22q50 -55 46 -117q-45 -30 -59 -31q-15 -2 -29 -2q-61 12 -117 19q-18 22 -18 51zM487 2135q0 -3 3 -7
t4 -6q36 -6 46 -17q21 -23 -3 -71l-31 -2l-111 2q-2 8 -2 14t-4 14h-8q-27 53 -41 81t-31 57t-65 122q-64 -64 -146 -243l-4 -47q-27 -2 -43 -2l-90 2q-49 25 -24 75q10 11 22 13t25 14q0 6 14 20q77 162 182 322q14 12 28 26t31 9q17 -4 40 -14q18 -29 38 -59
q95 -143 166 -296q4 -4 4 -7z" />
    <glyph glyph-name="Idieresis" unicode="&#xcf;" 
d="M397 2130q-114 75 -73 138q14 24 55 46q63 0 95 -24t33 -57q1 -31 -28 -61t-82 -42zM-10 2128q-118 68 -75 137q15 25 56 47q63 0 95 -24q32 -25 32 -58q0 -32 -28 -62t-80 -40zM76 82q0 28 17 54q17 28 38 57q-6 391 -7 786t-3 786q-10 27 -28 51q-27 37 -27 78
q27 10 58 26q51 27 198 -24q-10 -44 -24 -70t-50 -57v-407l-10 -985q0 -88 2 -195q2 -10 13 -22q50 -55 46 -117q-45 -30 -59 -32q-13 -1 -27 -1q-63 12 -119 19q-18 25 -18 53z" />
    <glyph glyph-name="Eth" unicode="&#xd0;" horiz-adv-x="2131" 
d="M598 1069q360 0 410 10q2 -31 6 -61t6 -50q2 -22 -2 -33t-19 -7h-401v-756q0 -4 67 -8t173 6q453 43 746 308q116 105 190 267q135 374 -20 624q-122 198 -422 308q-225 83 -496 103q-106 8 -176 7t-70 -3q8 -376 8 -715zM455 178v582q0 84 -2 168q-78 2 -156 5t-193 7
l-4 141q156 -12 351 -12q-2 178 -5 354q-2 176 -4 369q-28 12 -52 22t-44 41q0 45 1 55t9 15q733 30 1169 -177q201 -95 315 -228q226 -262 166 -586q-59 -323 -353 -584q-294 -262 -741 -333q-226 -36 -480 -3q-45 8 -72 6t-57 21q0 53 3 78t28 59h121z" />
    <glyph glyph-name="Ntilde" unicode="&#xd1;" horiz-adv-x="1718" 
d="M997 2230q-59 0 -114 25l-37 16q-80 39 -128 39t-73 -16t-47 -64h-88q35 113 88 162t128 49t161 -39l45 -20q59 -27 98 -27q84 0 123 96h88q-43 -221 -244 -221zM1477 383q0 675 -35 1178q-8 115 -19 198q-62 120 -6 139q27 10 73 6t101 -8q21 -40 7 -72q-13 -32 -24 -56
t-20 -50q5 -38 14 -532t29 -824v-323q-110 -92 -218 99q-26 46 -46 77l-44 59q-44 59 -186 253t-258 351q-116 156 -321 433t-225 291v-76l-2 -459q0 -358 -12 -874q35 -61 31 -105t-30 -66q-24 -24 -60 -27q-82 -7 -100 79q-10 42 19 110q21 990 21 1495q-6 55 -25 86
q-20 31 -25 51t-1 52q97 33 154 -11q37 -29 108 -145q182 -230 437 -564q255 -335 346 -454t161 -211t113 -147l43 -55v102z" />
    <glyph glyph-name="Ograve" unicode="&#xd2;" horiz-adv-x="2156" 
d="M1206 2105l-344 252l113 107l346 -359h-115zM1630 254q275 198 312 572q10 110 14 227q-43 233 -169 398t-294 256t-358 105t-363 -49q-208 -44 -347 -228q-101 -133 -158 -328q-30 -104 -38 -195q0 -195 87 -407t188 -297q255 -216 610 -206q308 12 516 152zM1987 1401
q122 -285 90 -592q-36 -347 -272 -563q-277 -253 -783 -262q-38 0 -145 25q-214 50 -380 145q-208 119 -278 299q-98 201 -108 438q-9 237 57 450q155 319 362 448q207 130 564 130q243 7 441 -90q199 -97 313 -223q113 -125 139 -205z" />
    <glyph glyph-name="Oacute" unicode="&#xd3;" horiz-adv-x="2156" 
d="M973 2105h-113l344 359l115 -107zM1630 254q275 198 312 572q10 110 14 227q-43 233 -169 398t-294 256t-358 105t-363 -49q-208 -44 -347 -228q-101 -133 -158 -328q-30 -104 -38 -195q0 -195 87 -407t188 -297q255 -216 610 -206q308 12 516 152zM1987 1401
q122 -285 90 -592q-36 -347 -272 -563q-277 -253 -783 -262q-38 0 -145 25q-214 50 -380 145q-208 119 -278 299q-98 201 -108 438q-9 237 57 450q155 319 362 448q207 130 564 130q243 7 441 -90q199 -97 313 -223q113 -125 139 -205z" />
    <glyph glyph-name="Ocircumflex" unicode="&#xd4;" horiz-adv-x="2156" 
d="M1630 254q275 198 312 572q10 110 14 227q-43 233 -169 398t-294 256t-358 105t-363 -49q-208 -44 -347 -228q-101 -133 -158 -328q-30 -104 -38 -195q0 -195 87 -407t188 -297q255 -216 610 -206q308 12 516 152zM1987 1401q122 -285 90 -592q-36 -347 -272 -563
q-277 -253 -783 -262q-38 0 -145 25q-214 50 -380 145q-208 119 -278 299q-98 201 -108 438q-9 237 57 450q155 319 362 448q207 130 564 130q243 7 441 -90q199 -97 313 -223q113 -125 139 -205zM887 2048l-90 2q-47 24 -25 76q10 10 22 12t25 14q0 6 15 21q79 165 182 321
q14 12 23 22t21 13q12 4 54 -14q18 -29 38 -59q83 -119 167 -295q4 -4 4 -9l6 -12q37 -6 46 -16q20 -23 -3 -72l-31 -2l-110 2q-2 8 -2 14t-4 15h-8q-27 53 -42 84t-42 77t-54 99q-64 -64 -145 -244l-4 -47q-27 -2 -43 -2z" />
    <glyph glyph-name="Otilde" unicode="&#xd5;" horiz-adv-x="2138" 
d="M1196 2161q-59 0 -115 24l-37 17q-75 37 -126 38q-50 0 -74 -16t-47 -63h-88q35 113 88 161q101 93 288 11l45 -21q57 -26 99 -26q84 0 123 96h88q-43 -221 -244 -221zM209 967q1 -57 25 -165t64 -204q87 -208 186 -291q256 -215 610 -205q308 12 516 152
q277 200 311 572q10 110 14 227q-43 233 -169 398t-294 256t-358 105t-362 -49q-206 -44 -348 -228q-60 -79 -98 -166q-97 -222 -97 -402zM1966 1401q106 -303 74 -592q-57 -554 -576 -750q-190 -72 -463 -75l-49 7q-255 36 -470 160q-215 123 -283 302q-97 198 -108 437
q-10 239 56 451q156 320 363 449t563 129q243 7 441 -90q199 -97 313 -223q113 -125 139 -205z" />
    <glyph glyph-name="Odieresis" unicode="&#xd6;" horiz-adv-x="2138" 
d="M1202 2159q-114 69 -72 138q14 24 56 46q63 0 94 -25q31 -24 32 -56t-28 -62t-82 -41zM797 2154q-77 44 -86 94q-10 50 67 91q63 0 94 -25q64 -52 6 -119q-28 -31 -81 -41zM209 967q1 -57 25 -165t64 -204q87 -208 186 -291q256 -215 610 -205q308 12 516 152
q277 200 311 572q10 110 14 227q-43 233 -169 398t-294 256t-358 105t-362 -49q-206 -44 -348 -228q-60 -79 -98 -166q-97 -222 -97 -402zM1966 1401q106 -303 74 -592q-57 -554 -576 -750q-190 -72 -463 -75l-49 7q-255 36 -470 160q-215 123 -283 302q-97 198 -108 437
q-10 239 56 451q156 320 363 449t563 129q243 7 441 -90q199 -97 313 -223q113 -125 139 -205z" />
    <glyph glyph-name="multiply" unicode="&#xd7;" horiz-adv-x="1081" 
d="M662 799q213 -218 258 -244q-20 -23 -51 -63q-52 -66 -64 -39l-244 245q-35 -33 -85 -83t-200 -185l-106 100q144 129 289 271l-62 62q-88 91 -202 218l96 105q104 -121 266 -285q226 230 244 256q23 -19 47 -37t49 -42q26 -24 6 -36l-203 -202z" />
    <glyph glyph-name="Oslash" unicode="&#xd8;" horiz-adv-x="2179" 
d="M1511 1696q-20 -77 -632 -1573q298 -65 602 54q86 34 149 77q275 198 312 572q10 110 14 227q-74 421 -445 643zM745 162q31 76 62 160l524 1300q27 70 49 135q-147 55 -305 57t-303 -51q-208 -44 -347 -228q-101 -133 -158 -328q-30 -104 -38 -195q0 -195 87 -406
t193 -303t236 -141zM838 18q-46 -115 -60 -143l-135 45q24 56 62 137q-262 91 -402 255q-53 62 -84 141q-98 201 -108 438q-9 237 57 450q155 319 362 448q207 130 564 130q180 2 329 -47q41 115 45 139q31 -10 75 -19t59 -20q14 -10 6 -22l-49 -131q165 -83 283 -209
q118 -127 145 -209q122 -285 90 -592q-36 -347 -272 -563q-277 -253 -783 -262q-48 0 -184 34z" />
    <glyph glyph-name="Ugrave" unicode="&#xd9;" horiz-adv-x="1775" 
d="M1028 2109l-344 252l113 107l346 -359h-115zM199 1898q29 0 61 -7t76 -13q17 -30 -9 -85q-26 -54 -36 -54q-2 -8 -2 -31v-55q0 -37 2 -104t3 -181t3 -281q2 -168 2 -409q13 -52 23 -104t25 -103q33 -113 112 -197q78 -73 229 -119q285 -90 511 27q280 145 327 656
q-2 213 4 428t4 426q-16 76 -49 110q-8 47 -2 60q6 12 43 24q57 0 100 -1q42 -1 62 -15q42 -30 -25 -146q0 -80 4 -192t7 -239q7 -301 -15 -545t-98 -375q-92 -184 -264 -280q-125 -70 -281 -86q-59 -5 -96 -3t-39 6q-333 -13 -556 245q-38 44 -62 82t-36 56
q-102 352 -75 1013q6 171 6 337q-37 60 -45 102q27 53 86 53z" />
    <glyph glyph-name="Uacute" unicode="&#xda;" horiz-adv-x="1775" 
d="M836 2103h-113l344 359l115 -107zM199 1898q29 0 61 -7t76 -13q17 -30 -9 -85q-26 -54 -36 -54q-2 -8 -2 -31v-55q0 -37 2 -104t3 -181t3 -281q2 -168 2 -409q13 -52 23 -104t25 -103q33 -113 112 -197q78 -73 229 -119q285 -90 511 27q280 145 327 656q-2 213 4 428
t4 426q-16 76 -49 110q-8 47 -2 60q6 12 43 24q57 0 100 -1q42 -1 62 -15q42 -30 -25 -146q0 -80 4 -192t7 -239q7 -301 -15 -545t-98 -375q-92 -184 -264 -280q-125 -70 -281 -86q-59 -5 -96 -3t-39 6q-333 -13 -556 245q-38 44 -62 82t-36 56q-102 352 -75 1013
q6 171 6 337q-37 60 -45 102q27 53 86 53z" />
    <glyph glyph-name="Ucircumflex" unicode="&#xdb;" horiz-adv-x="1775" 
d="M1085 2048q0 6 -4 14h-8q-27 53 -43 85q-16 31 -42 77t-52 98q-65 -65 -145 -243l-5 -47q-27 -2 -43 -2t-30 1l-28 2t-32 -1q-47 23 -24 75q10 11 22 13t25 14q0 6 14 20q77 162 182 322q14 12 28 26t31 9q17 -4 40 -14q18 -29 57 -86t95 -162q57 -105 57 -115l6 -12
q36 -6 46 -17q21 -23 -3 -71l-31 -2l-111 2q-2 8 -2 14zM199 1898q29 0 61 -7t76 -13q17 -30 -9 -85q-26 -54 -36 -54q-2 -8 -2 -31v-55q0 -37 2 -104t3 -181t3 -281q2 -168 2 -409q13 -52 23 -104t25 -103q33 -113 112 -197q78 -73 229 -119q285 -90 511 27
q280 145 327 656q-2 213 4 428t4 426q-16 76 -49 110q-8 47 -2 60q6 12 43 24q57 0 100 -1q42 -1 62 -15q42 -30 -25 -146q0 -80 4 -192t7 -239q7 -301 -15 -545t-98 -375q-92 -184 -264 -280q-125 -70 -281 -86q-59 -5 -96 -3t-39 6q-333 -13 -556 245q-38 44 -62 82
t-36 56q-102 352 -75 1013q6 171 6 337q-37 60 -45 102q27 53 86 53z" />
    <glyph glyph-name="Udieresis" unicode="&#xdc;" horiz-adv-x="1773" 
d="M1085 2159q-68 43 -83 91t65 93q63 0 95 -25q32 -24 33 -56t-28 -62t-82 -41zM678 2154q-74 42 -85 93t66 92q63 0 95 -25q65 -51 5 -119q-28 -31 -81 -41zM176 1898q29 0 61 -7t74 -13q18 -32 -8 -87q-10 -22 -21 -37t-14 -15q-2 -8 -2 -31v-55q0 -37 2 -104t3 -181
t3 -281q2 -168 2 -409q12 -52 22 -104q39 -195 136 -300q45 -41 135 -84t203 -62q276 -46 457 88q238 176 274 622q-4 213 3 428t3 426q-16 80 -47 110q-8 47 -2 59t43 25q57 0 99 -1t63 -15q40 -28 -25 -146q0 -80 4 -192t8 -239q17 -701 -114 -920q-90 -181 -265 -280
q-125 -70 -281 -86q-58 -5 -95 -3t-39 6q-333 -13 -556 245q-38 44 -61 82q-24 38 -36 56q-79 271 -81 671q-1 171 5 342t6 337q-37 58 -45 102q27 53 86 53z" />
    <glyph glyph-name="Yacute" unicode="&#xdd;" horiz-adv-x="2232" 
d="M1008 2103h-113l344 359l115 -107zM1190 763q0 -128 3 -216t6 -168t6 -146t3 -100q70 -39 63 -81q-4 -22 -30 -42q0 2 2 2h-133q-53 0 -82 -2q-25 31 -18 71q6 40 45 56q29 66 25 155q-3 89 -7 139t0 93q-8 109 -9 211t-5 217q-48 55 -186 192q-138 136 -369 364
t-267 249q-37 21 -65 29t-59 20l4 72q67 32 143 23q142 -17 180 -80q8 -18 6 -35q-4 -31 25 -84q11 0 183 -173t294 -293t178 -157q38 0 149 103t136 149q18 18 54 50q259 230 337 360q31 49 41 94q-25 29 -5 49q46 45 158 38t124 -72q6 -34 -43 -87q-48 -3 -187 -125
t-544 -558q-117 -124 -134 -124q-22 -65 -22 -193z" />
    <glyph glyph-name="Thorn" unicode="&#xde;" horiz-adv-x="1105" 
d="M319 1339v-798q119 -33 239 -5q34 7 63 11q134 65 195 143t79 225q-60 263 -190 351q-68 45 -162 59t-224 14zM254 -29q-22 0 -44 3t-38 -1q0 9 -10 9t-20 1q-23 3 3 68q57 321 53 963q-3 601 -44 833q-26 67 -3 69q9 1 19 0t10 9q16 -4 38 -1t44 3t41 -4q18 -4 27 -27
v-92q0 -178 -6 -319q49 -12 84 -10q159 -12 307 -50q127 -77 197 -185q141 -217 66 -484q-38 -131 -130 -252q-179 -110 -394 -120q-67 -3 -141 -3l9 -225v-154q-8 -23 -26 -27t-42 -4z" />
    <glyph glyph-name="germandbls" unicode="&#xdf;" horiz-adv-x="1462" 
d="M1028 1677q55 -92 55 -216t-186 -262q-35 -26 -35 -42q300 -91 424 -281q101 -160 70 -356q-32 -196 -148 -345t-221 -165q-137 -34 -259 17q-54 23 -105 55q-96 59 -155 82t-65 45t5 55q49 12 120 -1q16 -3 11 -9l206 -92q-9 -2 11 -11q54 -24 164 6t198 178
q47 79 76 208q0 240 -143 364t-369 146q-141 -78 -160 -244h-57q-49 73 -60 114t23 124q43 49 110 89q66 40 134 78t128 77q210 140 50 366q-12 20 -45 49q-33 30 -79 52q-181 89 -349 -22q-63 -42 -123 -126v-185l4 -716v-283q0 -298 -4 -424l-141 -4q12 188 12 432
l-12 879q0 335 -11 377q62 90 158 144q196 110 428 70q232 -41 340 -223z" />
    <glyph glyph-name="agrave" unicode="&#xe0;" horiz-adv-x="1185" 
d="M723 2097l-344 252l113 107l346 -359h-115zM381 602l330 -6q59 0 108 6q1 103 -53 366t-75 365q-22 103 -38 185t-24 122l-43 2q-128 -512 -202 -972q-10 -60 -3 -68zM236 2l-91 2q-46 23 -24 76q10 10 22 12t25 14q21 164 156 809t190 940l104 13q70 0 78 -62
q58 -250 171 -866q114 -616 167 -848q37 -6 46 -16q21 -24 -3 -72q-10 -2 -18 -2h-45l-78 2q-8 111 -39 234t-53 251l-410 5q-62 0 -92 -5q-37 -107 -56 -392q-3 -44 -5 -70l-2 -23q-27 -2 -43 -2z" />
    <glyph glyph-name="aacute" unicode="&#xe1;" horiz-adv-x="1185" 
d="M485 2095h-112l344 359l114 -107zM381 602l330 -6q59 0 108 6q1 103 -53 366t-75 365q-22 103 -38 185t-24 122l-43 2q-128 -512 -202 -972q-10 -60 -3 -68zM236 2l-91 2q-46 23 -24 76q10 10 22 12t25 14q21 164 156 809t190 940l104 13q70 0 78 -62q58 -250 171 -866
q114 -616 167 -848q37 -6 46 -16q21 -24 -3 -72q-10 -2 -18 -2h-45l-78 2q-8 111 -39 234t-53 251l-410 5q-62 0 -92 -5q-37 -107 -56 -392q-3 -44 -5 -70l-2 -23q-27 -2 -43 -2z" />
    <glyph glyph-name="acircumflex" unicode="&#xe2;" horiz-adv-x="1185" 
d="M381 586l330 -6q59 0 108 6q1 103 -53 366t-75 365q-22 102 -38 184l-24 123l-43 2q-128 -512 -202 -972q-10 -60 -3 -68zM236 -14l-91 2q-47 23 -24 75q10 11 22 13t25 14q21 164 156 809t190 940l104 12q70 0 78 -61q59 -256 171 -864t167 -850q38 -6 46 -17
q21 -25 -3 -71q-10 -2 -18 -2h-45l-78 2q-8 112 -39 234t-53 251l-410 4q-56 0 -92 -4q-37 -115 -56 -392q-3 -44 -5 -71l-2 -22q-27 -2 -43 -2zM416 2030l-90 2q-48 24 -25 75q11 11 23 13t24 14q0 6 14 20q79 167 183 322q14 12 23 22t21 13q12 4 54 -14q18 -29 57 -86
t95 -162q57 -105 57 -115l6 -12q38 -6 46 -17q20 -24 -3 -71l-31 -2l-110 2q-2 8 -2 14t-4 14h-9q-27 53 -40 81q-14 28 -35 65t-62 114q-65 -65 -145 -243l-4 -47q-27 -2 -43 -2z" />
    <glyph glyph-name="atilde" unicode="&#xe3;" horiz-adv-x="1185" 
d="M452 2316q-50 0 -74 -16t-46 -64h-88q35 113 88 162t128 49t161 -39l45 -20q59 -27 98 -27q84 1 123 97h88q-43 -221 -244 -222q-59 0 -115 25l-36 16q-79 39 -128 39zM381 602l330 -6q59 0 108 6q1 103 -53 366t-75 365q-22 103 -38 185t-24 122l-43 2
q-128 -512 -202 -972q-10 -60 -3 -68zM236 2l-91 2q-46 23 -24 76q10 10 22 12t25 14q21 164 156 809t190 940l104 13q70 0 78 -62q58 -250 171 -866q114 -616 167 -848q37 -6 46 -16q21 -24 -3 -72q-10 -2 -18 -2h-45l-78 2q-8 111 -39 234t-53 251l-410 5q-62 0 -92 -5
q-37 -107 -56 -392q-3 -44 -5 -70l-2 -23q-27 -2 -43 -2z" />
    <glyph glyph-name="adieresis" unicode="&#xe4;" horiz-adv-x="1157" 
d="M772 2130q-75 52 -80 84q-11 61 64 100q63 0 94 -24t32 -57q1 -31 -28 -61t-82 -42zM367 2128q-118 68 -75 137q15 25 56 47q63 0 94 -24t32 -58q2 -32 -26 -62t-81 -40zM358 602l330 -6q55 0 109 6q1 103 -53 366t-75 365q-22 103 -38 185t-25 122l-43 2
q-127 -512 -201 -972q-10 -60 -4 -68zM1067 49q0 -16 -12 -45q-9 -2 -19 -2h-45l-78 2q-8 111 -39 234t-53 251l-409 5q-66 0 -93 -5q-16 -47 -34 -190t-22 -195q-3 -51 -5 -77l-2 -23q-27 -2 -43 -2l-90 2q-49 24 -27 76q10 10 22 12t27 14q27 211 157 814t190 935l104 13
q68 0 78 -62q58 -250 171 -866q114 -616 167 -848q55 -9 55 -43z" />
    <glyph glyph-name="aring" unicode="&#xe5;" horiz-adv-x="1185" 
d="M608 2140q45 0 77 32t32 79t-32 79t-77 32t-77 -32q-31 -32 -31 -79t32 -79t76 -32zM608 2050q-84 0 -142 59t-58 143t58 141q58 58 142 58t142 -58t59 -142q0 -84 -58 -143q-59 -58 -143 -58zM381 602l330 -6q59 0 108 6q1 103 -53 366t-75 365q-22 103 -38 185t-24 122
l-43 2q-128 -512 -202 -972q-10 -60 -3 -68zM236 2l-91 2q-46 23 -24 76q10 10 22 12t25 14q21 164 156 809t190 940l104 13q70 0 78 -62q58 -250 171 -866q114 -616 167 -848q37 -6 46 -16q21 -24 -3 -72q-10 -2 -18 -2h-45l-78 2q-8 111 -39 234t-53 251l-410 5
q-62 0 -92 -5q-37 -107 -56 -392q-3 -44 -5 -70l-2 -23q-27 -2 -43 -2z" />
    <glyph glyph-name="ae" unicode="&#xe6;" horiz-adv-x="1718" 
d="M371 598l329 -6q59 0 109 6q0 94 -49 428t-64 437q-14 103 -24 173l-37 2q-124 -387 -224 -822q-50 -205 -40 -218zM193 -2l-91 2q-44 26 -20 76q10 10 22 12t25 14q24 144 225 895q200 751 219 854h11q4 8 6 15q383 28 547 8q20 -23 50 -47q54 -44 42 -115q-53 0 -79 16
t-69 50q-84 0 -172 5t-161 -14q16 -91 38 -203t37 -216q23 -117 41 -212t25 -130q25 0 77 -6q52 -5 158 -5q23 7 35 25t43 16q29 -36 38 -74t17 -92q-10 -10 -32 -10t-45 14t-31 17q-32 4 -59 4t-68 -6t-117 -10q18 -114 43 -365t64 -412h499q19 18 23 36t8 32q8 29 64 25
q34 -77 6 -201q-283 9 -703 -10q-43 23 -50 41t-5 51q6 17 31 31q-10 90 -29 184q-18 94 -29 192l-409 4q-56 0 -92 -4q-48 -124 -87 -462l-3 -23q-27 -2 -43 -2z" />
    <glyph glyph-name="ccedilla" unicode="&#xe7;" horiz-adv-x="1843" 
d="M860 -225q-21 0 -29 2q-8 4 -16 19t-8 26q-57 86 -14 217q-230 76 -414 264q-325 332 -256 773q25 159 117 331q51 104 143 192q93 89 183 147t208 93q260 78 569 -4q63 -38 86 -41q23 -2 48 0t69 2q30 -15 60 -103q30 -87 30 -153q-82 -54 -131 36q-12 24 -22 46
q-250 192 -551 134q-266 -51 -473 -263q-202 -206 -233 -451q-32 -245 97 -470q97 -168 273 -298q114 -83 197 -118q234 -86 486 -48q251 38 382 242h51q56 -104 -75 -203q-56 -41 -127 -73t-124 -56q-240 -63 -442 -19q-49 11 -86 21q-33 -100 16 -153q320 86 453 -24
q57 -47 69 -115q26 -140 -68 -251q-42 -52 -93 -65q-10 -24 -132 -46t-174 -6t-68 28q-36 28 -15 71q6 0 39 6q115 -37 203 -15t142 72t66 113t-25 111q-38 47 -132 61t-256 -32h-23z" />
    <glyph glyph-name="egrave" unicode="&#xe8;" horiz-adv-x="980" 
d="M539 2101l-344 252l112 107l346 -359h-114zM635 860q-12 -10 -33 -10t-42 13t-30 18q-36 4 -61 4l-184 -17q0 -88 -4 -184q-18 -434 -5 -592h500q20 18 34 50t27 38t46 4q25 -73 -23 -200q-266 9 -704 -11q-39 23 -43 41t2 52q6 14 16 20t25 14l2 568l2 673l2 390
q-37 16 -48 30t-24 35q10 29 12 36t13 21q55 3 124 9q259 21 420 0q18 -23 45 -48q46 -42 25 -114q-50 0 -73 14t-36 26t-32 25q-184 0 -328 -36q0 -221 14 -462t13 -272l233 -10q14 5 35 23t51 18q23 -37 26 -75t3 -91z" />
    <glyph glyph-name="eacute" unicode="&#xe9;" horiz-adv-x="980" 
d="M334 2101h-113l344 359l115 -107zM635 860q-12 -10 -33 -10t-42 13t-30 18q-36 4 -61 4l-184 -17q0 -88 -4 -184q-18 -434 -5 -592h500q20 18 34 50t27 38t46 4q25 -73 -23 -200q-266 9 -704 -11q-39 23 -43 41t2 52q6 14 16 20t25 14l2 568l2 673l2 390q-37 16 -48 30
t-24 35q10 29 12 36t13 21q55 3 124 9q259 21 420 0q18 -23 45 -48q46 -42 25 -114q-50 0 -73 14t-36 26t-32 25q-184 0 -328 -36q0 -221 14 -462t13 -272l233 -10q14 5 35 23t51 18q23 -37 26 -75t3 -91z" />
    <glyph glyph-name="ecircumflex" unicode="&#xea;" horiz-adv-x="1024" 
d="M608 2048q0 6 -4 14h-8q-27 53 -41 81t-31 57t-65 122q-64 -64 -146 -243l-4 -47q-27 -2 -43 -2t-30 1l-28 2t-32 -1q-49 25 -24 75q10 11 22 13t25 14q0 6 14 20q77 162 182 322q14 12 28 26t31 9q17 -4 40 -14q18 -29 38 -59l46 -69q58 -93 120 -227q4 -4 4 -8l7 -12
q36 -6 46 -17q21 -23 -3 -71l-31 -2l-111 2q-2 8 -2 14zM657 860q-12 -10 -33 -10t-42 13t-29 18q-32 4 -61 4l-185 -17q0 -88 -4 -184q-18 -426 -4 -592h500q20 18 27 36q6 18 14 32t20 20t45 4q24 -70 -22 -200q-267 9 -705 -11q-39 23 -42 41t1 52q5 14 17 20t24 14
l4 568v348l2 579v136q-37 16 -47 30t-24 35q10 29 12 36t12 21q55 3 124 9q257 21 423 0q16 -23 34 -38q56 -48 34 -124q-52 0 -74 14t-34 26t-32 25q-188 0 -327 -36q0 -187 12 -445t12 -289l234 -10q12 4 20 11q8 6 23 18t43 12q23 -37 25 -75t3 -91z" />
    <glyph glyph-name="edieresis" unicode="&#xeb;" horiz-adv-x="980" 
d="M639 2130q-75 52 -80 84q-11 61 64 100q63 0 94 -24t32 -57q1 -31 -28 -61t-82 -42zM233 2128q-120 68 -74 137q15 25 56 47q63 0 94 -24t32 -58q1 -32 -27 -62t-81 -40zM635 860q-12 -10 -33 -10t-42 13t-30 18q-36 4 -61 4l-184 -17q0 -88 -4 -184q-18 -434 -5 -592
h500q20 18 34 50t27 38t46 4q25 -73 -23 -200q-266 9 -704 -11q-39 23 -43 41t2 52q6 14 16 20t25 14l2 568l2 673l2 390q-37 16 -48 30t-24 35q10 29 12 36t13 21q55 3 124 9q259 21 420 0q18 -23 45 -48q46 -42 25 -114q-50 0 -73 14t-36 26t-32 25q-184 0 -328 -36
q0 -221 14 -462t13 -272l233 -10q14 5 35 23t51 18q23 -37 26 -75t3 -91z" />
    <glyph glyph-name="igrave" unicode="&#xec;" 
d="M317 2111l-344 252l113 107l346 -359h-115zM156 1336q0 198 -2 409q-80 74 -21 129h148q29 -39 23 -70t-30 -84q-14 -287 -14 -1583q37 -20 44 -77t-25 -76q-29 2 -52 2h-39l-65 -2h-6q-21 43 -17 78q4 36 15 44q4 12 26 27q4 409 9 708q6 297 6 495z" />
    <glyph glyph-name="iacute" unicode="&#xed;" 
d="M80 2095h-113l344 359l115 -107zM156 1336q0 198 -2 409q-80 74 -21 129h148q29 -39 23 -70t-30 -84q-14 -287 -14 -1583q37 -20 44 -77t-25 -76q-29 2 -52 2h-39l-65 -2h-6q-21 43 -17 78q4 36 15 44q4 12 26 27q4 409 9 708q6 297 6 495z" />
    <glyph glyph-name="icircumflex" unicode="&#xee;" horiz-adv-x="483" 
d="M168 1242q0 294 -2 505q-80 74 -21 129h154q29 -39 22 -70t-30 -84q-12 -246 -12 -1583q36 -20 40 -60q8 -74 -24 -93q-29 2 -53 2h-39l-68 -2h-4q-11 15 -16 62q-5 46 12 61q4 4 9 11t18 15q2 213 8 513t6 594zM487 2135q0 -3 3 -7t4 -6q36 -6 46 -17q21 -23 -3 -71
l-31 -2l-111 2q-2 8 -2 14t-4 14h-8q-27 53 -41 81t-31 57t-65 122q-64 -64 -146 -243l-4 -47q-27 -2 -43 -2l-90 2q-49 25 -24 75q10 11 22 13t25 14q0 6 14 20q77 162 182 322q14 12 28 26t31 9q17 -4 40 -14q18 -29 38 -59q95 -143 166 -296q4 -4 4 -7z" />
    <glyph glyph-name="idieresis" unicode="&#xef;" 
d="M397 2130q-114 75 -73 138q14 24 55 46q63 0 95 -24t33 -57q1 -31 -28 -61t-82 -42zM-10 2128q-118 68 -75 137q15 25 56 47q63 0 95 -24q32 -25 32 -58q0 -32 -28 -62t-80 -40zM156 1336q0 198 -2 409q-80 74 -21 129h148q29 -39 23 -70t-30 -84q-14 -287 -14 -1583
q37 -20 44 -77t-25 -76q-29 2 -52 2h-39l-65 -2h-6q-21 43 -17 78q4 36 15 44q4 12 26 27q4 409 9 708q6 297 6 495z" />
    <glyph glyph-name="eth" unicode="&#xf0;" horiz-adv-x="1495" 
d="M1116 246q79 79 120 150q126 215 75 374q-10 35 -23 90q-19 82 -61 156q-124 134 -319 182q-314 78 -557 -127q-83 -70 -144 -178q-59 -193 -11 -373t224 -311q154 -63 251 -77q291 -40 445 114zM479 1825v47q110 43 352 -86q27 37 60 78t59 100l105 -96
q-36 -36 -119 -142q60 -33 92 -59q285 -306 371 -573q87 -266 33 -602q-56 -170 -146 -270q-170 -187 -384 -207q-266 -26 -472 51q-169 108 -226 171q-57 62 -87 123q-31 61 -56 150q0 25 -7 83q-49 405 231 601q92 66 241 104q272 94 660 -119q31 -17 33 -18
q-18 27 -72 130q-118 225 -283 347q-64 -81 -106 -170l-105 99q24 24 54 63q30 38 59 72q-115 62 -262 80q-25 25 -25 43z" />
    <glyph glyph-name="ntilde" unicode="&#xf1;" horiz-adv-x="1126" 
d="M415 2316q-48 0 -73 -16t-47 -64h-88q35 113 88 162t128 49t161 -39l45 -20q59 -27 98 -27q84 1 123 97h88q-43 -221 -244 -222q-59 0 -114 25l-37 16q-80 39 -128 39zM854 16q0 10 -4 27q4 39 4 86l-4 432q-122 209 -333 637q-212 428 -218 428v-129q0 -493 4 -835
t6 -556q39 -59 28 -89t-41 -40t-66 -8t-46 8q-21 45 -19 65q3 20 32 64q21 418 9 1267q-3 212 -3 409q-53 27 -74 49q-39 45 8 64q60 24 154 -11q6 -6 13 -31t89 -188q82 -162 157 -317t182 -365q107 -211 110 -211q27 244 7 786q-5 138 -7 236q-16 23 -30 35t-12 27
q1 14 7 36q204 31 204 -22q-2 -22 -20 -47t-20 -31q-31 -922 -5 -1574q5 -151 5 -206q-16 -37 -45 -39t-66 11q-2 8 -4 15t-2 17z" />
    <glyph glyph-name="ograve" unicode="&#xf2;" horiz-adv-x="2156" 
d="M1206 2105l-344 252l113 107l346 -359h-115zM1630 254q275 198 312 572q10 110 14 227q-43 233 -169 398t-294 256t-358 105t-363 -49q-208 -44 -347 -228q-101 -133 -158 -328q-30 -104 -38 -195q0 -195 87 -407t188 -297q255 -216 610 -206q308 12 516 152zM1987 1401
q122 -285 90 -592q-36 -347 -272 -563q-277 -253 -783 -262q-38 0 -145 25q-214 50 -380 145q-208 119 -278 299q-98 201 -108 438q-9 237 57 450q155 319 362 448q207 130 564 130q243 7 441 -90q199 -97 313 -223q113 -125 139 -205z" />
    <glyph glyph-name="oacute" unicode="&#xf3;" horiz-adv-x="2156" 
d="M973 2105h-113l344 359l115 -107zM1630 254q275 198 312 572q10 110 14 227q-43 233 -169 398t-294 256t-358 105t-363 -49q-208 -44 -347 -228q-101 -133 -158 -328q-30 -104 -38 -195q0 -195 87 -407t188 -297q255 -216 610 -206q308 12 516 152zM1987 1401
q122 -285 90 -592q-36 -347 -272 -563q-277 -253 -783 -262q-38 0 -145 25q-214 50 -380 145q-208 119 -278 299q-98 201 -108 438q-9 237 57 450q155 319 362 448q207 130 564 130q243 7 441 -90q199 -97 313 -223q113 -125 139 -205z" />
    <glyph glyph-name="ocircumflex" unicode="&#xf4;" horiz-adv-x="2111" 
d="M492 307q238 -201 578 -192q146 4 273 45q357 115 468 448q32 96 42 200t15 216q-52 286 -232 464q-179 178 -422 234q-243 57 -469 -20q-338 -84 -483 -532q-39 -120 -39 -203q0 -169 85 -370q85 -202 184 -290zM1892 1356q57 -109 84 -251q58 -307 -64 -589
q-133 -312 -490 -444q-185 -70 -447 -70l-45 7q-119 18 -242 63q-377 137 -471 387q-136 284 -93 638q13 108 42 206q151 297 348 422q197 124 541 122q231 7 417 -84t294 -210q107 -119 126 -197zM887 2048l-90 2q-47 24 -25 76q10 10 22 12t25 14q0 6 15 21
q79 165 182 321q14 12 23 22t21 13q12 4 54 -14q18 -29 38 -59q83 -119 167 -295q4 -4 4 -9l6 -12q37 -6 46 -16q20 -23 -3 -72l-31 -2l-110 2q-2 8 -2 14t-4 15h-8q-27 53 -42 84t-42 77t-54 99q-64 -64 -145 -244l-4 -47q-27 -2 -43 -2z" />
    <glyph glyph-name="otilde" unicode="&#xf5;" horiz-adv-x="2138" 
d="M492 307q238 -201 578 -192q146 4 273 45q357 115 468 448q32 96 42 200t15 216q-52 286 -232 464q-179 178 -422 234q-243 57 -469 -20q-338 -84 -483 -532q-39 -120 -39 -203q0 -169 85 -370q85 -202 184 -290zM1892 1356q57 -109 84 -251q58 -307 -64 -589
q-133 -312 -490 -444q-185 -70 -447 -70l-45 7q-119 18 -242 63q-377 137 -471 387q-136 284 -93 638q13 108 42 206q151 297 348 422q197 124 541 122q231 7 417 -84t294 -210q107 -119 126 -197zM880 2234q-50 0 -74 -16t-46 -64h-88q35 113 88 162t127 49t162 -38l45 -21
q55 -25 98 -27q84 1 123 97h88q-43 -221 -244 -222q-59 0 -115 25l-36 16q-79 39 -128 39z" />
    <glyph glyph-name="odieresis" unicode="&#xf6;" horiz-adv-x="2039" 
d="M1151 2159q-114 69 -72 138q14 24 56 46q63 0 94 -25q31 -24 32 -56t-28 -62t-82 -41zM745 2154q-74 42 -85 93q-11 50 67 92q63 0 94 -25q31 -24 32 -56t-27 -63t-81 -41zM199 942q1 -56 25 -160q24 -102 64 -193q86 -195 181 -282q238 -201 578 -192q145 4 272 45
q247 80 369 254t143 395q10 104 14 215q-48 280 -228 460q-181 181 -426 238q-244 57 -470 -20q-198 -49 -328 -220q-57 -75 -95 -158q-99 -216 -99 -382zM1868 1356q103 -281 76 -564q-32 -334 -250 -539q-259 -244 -742 -251l-45 7q-121 19 -243 63q-377 137 -469 387
q-137 285 -94 638q13 108 42 206q151 297 348 422q197 124 541 122q331 10 596 -192q134 -102 202 -216q30 -50 38 -83z" />
    <glyph glyph-name="divide" unicode="&#xf7;" horiz-adv-x="1081" 
d="M524 1165q-235 148 -26 265q92 0 136 -36t45 -81t-39 -89t-116 -59zM516 385q-167 106 -107 198q22 34 80 66q93 0 137 -36t45 -81t-39 -89t-116 -58zM602 985q326 0 377 10q2 -31 6 -61t6 -50q2 -22 -2 -33t-18 -7h-377q-148 0 -209 2t-128 4t-163 6l-4 141
q186 -12 512 -12z" />
    <glyph glyph-name="oslash" unicode="&#xf8;" horiz-adv-x="2179" 
d="M1511 1696q-20 -77 -632 -1573q298 -65 602 54q86 34 149 77q275 198 312 572q10 110 14 227q-74 421 -445 643zM745 162q31 76 62 160l524 1300q27 70 49 135q-147 55 -305 57t-303 -51q-208 -44 -347 -228q-101 -133 -158 -328q-30 -104 -38 -195q0 -195 87 -406
t193 -303t236 -141zM838 18q-46 -115 -60 -143l-135 45q24 56 62 137q-262 91 -402 255q-53 62 -84 141q-98 201 -108 438q-9 237 57 450q155 319 362 448q207 130 564 130q180 2 329 -47q41 115 45 139q31 -10 75 -19t59 -20q14 -10 6 -22l-49 -131q165 -83 283 -209
q118 -127 145 -209q122 -285 90 -592q-36 -347 -272 -563q-277 -253 -783 -262q-48 0 -184 34z" />
    <glyph glyph-name="ugrave" unicode="&#xf9;" horiz-adv-x="1191" 
d="M713 2101l-344 252l112 107l346 -359h-114zM1079 1838q0 -50 -51 -79q-8 -215 2 -436q24 -532 7 -804q-23 -371 -211 -495q-99 -67 -271 -51q-57 0 -105 3q-102 6 -167 91q-37 46 -74 130q-51 197 -58 391t1 388t17 390t-5 393q-16 11 -26 23t-25 22v74q101 29 170 11
q35 -9 39 -40t-52 -90q0 -51 -2 -169q-20 -1169 70 -1402q38 -53 108 -85q153 -70 298 8q73 39 114 125q52 95 62 483t-3 624q-12 236 -24 400q-29 33 -39 50t-10 38v35q25 18 98 18l121 -2q16 -16 16 -44z" />
    <glyph glyph-name="uacute" unicode="&#xfa;" horiz-adv-x="1191" 
d="M492 2103h-113l344 359l115 -107zM1079 1838q0 -50 -51 -79q-8 -215 2 -436q24 -532 7 -804q-23 -371 -211 -495q-99 -67 -271 -51q-57 0 -105 3q-102 6 -167 91q-37 46 -74 130q-51 197 -58 391t1 388t17 390t-5 393q-16 11 -26 23t-25 22v74q101 29 170 11
q35 -9 39 -40t-52 -90q0 -51 -2 -169q-20 -1169 70 -1402q38 -53 108 -85q153 -70 298 8q73 39 114 125q52 95 62 483t-3 624q-12 236 -24 400q-29 33 -39 50t-10 38v35q25 18 98 18l121 -2q16 -16 16 -44z" />
    <glyph glyph-name="ucircumflex" unicode="&#xfb;" horiz-adv-x="1191" 
d="M1079 1838q0 -50 -51 -79q-8 -215 2 -436q24 -532 7 -804q-23 -371 -211 -495q-99 -67 -271 -51q-57 0 -105 3q-102 6 -167 91q-37 46 -74 130q-63 301 -56 778q3 195 10 391t1 393q-16 11 -26 23t-25 22v74q101 29 170 11q35 -9 39 -40t-52 -90q0 -51 -2 -169
q-20 -1169 70 -1402q38 -53 108 -85q153 -70 298 8q73 39 114 125q52 95 62 483t-3 624q-12 236 -24 400q-29 33 -39 50t-10 38v35q25 18 98 18l121 -2q16 -16 16 -44zM739 2048q0 6 -4 14h-8q-27 53 -41 81t-31 57t-65 122q-64 -64 -146 -243l-4 -47q-27 -2 -43 -2t-30 1
l-28 2t-32 -1q-49 25 -24 75q10 11 22 13t25 14q0 6 14 20q77 162 182 322q14 12 28 26t31 9q17 -4 40 -14q18 -29 57 -86t93 -158t59 -119l6 -12q36 -6 46 -17q21 -23 -3 -71l-31 -2l-111 2q-2 8 -2 14z" />
    <glyph glyph-name="udieresis" unicode="&#xfc;" horiz-adv-x="1146" 
d="M748 2130q-158 105 -19 184q63 0 95 -24t33 -57q1 -31 -27 -61t-82 -42zM340 2128q-118 68 -75 137q15 25 57 47q63 0 94 -24q32 -24 32 -58q0 -32 -28 -62t-80 -40zM821 1831v35q25 18 99 18l118 -2q18 -18 18 -44q1 -48 -50 -79q-8 -215 2 -436q24 -532 7 -804
q-23 -370 -211 -495q-100 -67 -272 -51q-57 0 -105 3q-102 6 -169 91q-37 46 -72 130q-51 197 -58 391t1 388t17 390t-5 393q-16 11 -27 23t-24 22v74q101 29 170 11q35 -9 39 -40t-51 -90q0 -51 -2 -169q-20 -1172 69 -1402q39 -53 109 -85q70 -31 148 -31t149 39
q72 39 113 125q55 97 66 561t-30 946q-29 33 -39 50t-10 38z" />
    <glyph glyph-name="yacute" unicode="&#xfd;" horiz-adv-x="1103" 
d="M453 2099h-113l344 359l115 -107zM823 1821v41q63 40 111 28t57 -94q-27 -16 -37 -38t-32 -44q-49 -129 -145 -429t-150 -435l-2 -361q0 -247 -7 -356q8 -14 22 -22q55 -32 24 -127q-38 -20 -86 -15q-47 5 -82 2q-33 55 -19 97q6 18 17 37q10 19 16 51q0 170 1 355
t-11 349q-202 602 -238 694q-36 90 -50 122t-34 75q-20 6 -34 16t-31 17q0 58 8 78q74 18 105 19t96 -26q4 -39 -4 -57t-31 -55q69 -146 160 -425q90 -279 120 -366q14 0 77 203t91 291q29 88 55 167t44 130q-11 40 -11 78z" />
    <glyph glyph-name="thorn" unicode="&#xfe;" horiz-adv-x="729" 
d="M238 502q2 0 38 10q84 24 184 123t93 299q-4 106 -59 250q-63 107 -100 130q-57 36 -163 34q-23 -383 7 -846zM121 504q0 137 -1 248t-2 255t-3 334t-4 451q-9 12 -17 24q-28 38 -14 91q30 8 100 32q81 0 108 -36q11 -16 7 -48q-47 -37 -52 -69t-14 -66q0 -134 -4 -264
q112 5 178 -27q66 -33 112 -82q46 -50 83 -139q98 -290 15 -496q-61 -150 -210 -245q-57 -37 -102 -55t-53 -23q-8 -47 -12 -64t-5 -24q0 -4 1 -2t4 -16t0 -86q8 -33 13 -66t52 -70q9 -73 -78 -81q-23 -2 -37 -3q-30 11 -54 19t-46 14q-14 53 14 91q8 11 17 24q4 242 4 379z
" />
    <glyph glyph-name="ydieresis" unicode="&#xff;" horiz-adv-x="1103" 
d="M760 2130q-158 105 -19 184q63 0 96 -24q33 -25 33 -57q0 -31 -28 -61t-82 -42zM461 2230q0 -32 -28 -62t-81 -40q-118 68 -72 137q15 25 56 47q63 0 94 -24t31 -58zM823 1821v41q63 40 111 28t57 -94q-27 -16 -37 -38t-32 -44q-49 -129 -145 -429t-150 -435l-2 -361
q0 -247 -7 -356q8 -14 22 -22q55 -32 24 -127q-38 -20 -86 -15q-47 5 -82 2q-33 55 -19 97q6 18 17 37q10 19 16 51q0 170 1 355t-11 349q-202 602 -238 694q-36 90 -50 122t-34 75q-20 6 -34 16t-31 17q0 58 8 78q74 18 105 19t96 -26q4 -39 -4 -57t-31 -55
q69 -146 160 -425q90 -279 120 -366q14 0 77 203t91 291q29 88 55 167t44 130q-11 40 -11 78z" />
    <glyph glyph-name="OE" unicode="&#x152;" horiz-adv-x="2979" 
d="M209 967q1 -57 25 -165t64 -204q87 -208 186 -291q256 -215 610 -205q308 12 516 152q253 184 299 487q14 92 20 191v145q-64 296 -254 479t-445 239q-256 55 -478 -32q-206 -44 -348 -228q-60 -79 -98 -166q-97 -222 -97 -402zM1864 43v41q29 12 34 19t21 34q0 82 6 295
q-175 -310 -590 -409q-147 -35 -334 -39l-49 7q-255 36 -470 160q-215 123 -283 302q-97 198 -108 437q-10 239 56 451q156 320 363 449t563 129q304 7 558 -155q108 -70 183 -148t113 -139l-8 307q-10 18 -48 41t-40 46t27 54q210 -6 308 -6t240 -4q220 22 328 4
q35 -128 35 -209q-15 -14 -25 -15t-53 5q-31 25 -72 80q-48 12 -116 12h-443q-20 -39 -1 -330q5 -78 9 -150t8 -131q4 -58 5 -87q8 -6 18 -7l158 3h92q55 0 127 -3q102 50 134 42q32 -9 45 -33t20 -72q0 -88 -59 -113t-126 43l-399 7q-17 -39 -20 -208q-8 -610 8 -626
l346 -10q208 0 344 61q36 74 117 35q17 -149 -66 -193q-32 -16 -64 -12t-42 12q-203 2 -417 -9t-413 -11q-20 28 -20 43z" />
    <glyph glyph-name="oe" unicode="&#x153;" horiz-adv-x="2666" 
d="M199 942q1 -56 25 -160q24 -102 64 -193q86 -195 181 -282q238 -201 578 -192q145 4 272 45q247 80 369 254t143 395q10 104 14 215q-48 280 -228 460q-181 181 -426 238q-244 57 -470 -20q-198 -49 -328 -220q-57 -75 -95 -158q-99 -216 -99 -382zM1843 266q0 86 2 185
q-105 -198 -313 -315q-237 -130 -580 -134l-45 7q-121 19 -243 63q-377 137 -469 387q-137 285 -94 638q13 108 42 206q151 297 348 422q197 124 541 122q294 7 543 -155q102 -68 171 -146t99 -135l2 340q-35 17 -46 31t-25 35q13 37 26 57q390 28 545 8q18 -23 44 -47
q46 -42 26 -115q-54 0 -75 14q-20 14 -34 26q-14 11 -33 26q-191 0 -327 -37q0 -148 13 -425t13 -308l232 -10q12 4 21 11t23 18t44 12q24 -37 26 -75t2 -91q-31 -26 -86 8q-12 8 -20 12q-32 4 -62 4l-184 -16l-14 -580q0 -100 8 -196h498q20 18 35 50q14 31 27 37t46 5
q24 -71 -22 -201q-280 9 -705 -10q-39 23 -43 41t2 51q6 14 16 20l25 15v145z" />
    <glyph glyph-name="Scaron" unicode="&#x160;" horiz-adv-x="1284" 
d="M307 35q-84 0 -120 19q-36 18 -48 56t-9 92t-3 126q-20 51 -15 86t24 44t49 -9t61 -70q32 -137 56 -172q23 -35 46 -48q22 -13 56 -23t81 -20q47 -9 113 -26q126 0 184 20q112 38 179 126q121 326 -74 571q-110 138 -300 264q-89 59 -179 119q-115 100 -156 202
q-82 204 92 359q84 74 219 117q147 19 260 -6q57 8 88 11t47 -10t22 -48t17 -103q9 -16 23 -36q59 -83 29 -148q-96 -45 -147 95q-11 34 -19 58q-53 33 -101 44t-92 26q-70 0 -140 -26q-151 -56 -189 -182q-19 -65 14 -140q100 -94 222 -177t185 -129q217 -158 336 -427
q102 -336 -80 -552q-27 -32 -47 -49t-20 -20q-154 -91 -377 -81q-156 9 -287 67zM512 2482q0 -6 4 -14h8q27 -53 41 -81t37 -67t62 -114q10 10 48 64t95 181l4 48q27 2 43 2l90 -2q4 -3 11 -9t18 -19t-4 -48q-11 -11 -23 -13t-24 -14q0 -6 -15 -20q-77 -162 -182 -322
q-13 -12 -23 -21t-22 -14t-53 15q-19 28 -39 58q-90 129 -166 296q-4 4 -4 6l-6 14q-36 6 -46 17q-21 24 3 72l30 2l111 -2q2 -9 2 -15z" />
    <glyph glyph-name="scaron" unicode="&#x161;" horiz-adv-x="964" 
d="M182 61q-37 0 -69 9q0 190 41 256q31 10 63 10q19 -33 29 -66q10 -34 24 -66q33 -76 111 -112q139 -16 214 28q184 108 116 457q-29 146 -64 206q-35 61 -132 192t-154 218q-113 175 -124 325q-7 82 19 172q33 49 65 92q31 42 79 68q103 55 307 -3q8 -25 20 -59
q50 -138 8 -197h-39q-25 37 -43 84t-47 80q-117 0 -172 -47q-106 -90 -49 -272q27 -84 76 -158q293 -336 366 -638q55 -221 -4 -406q-23 -70 -47 -106t-28 -36q0 -20 -27 -45q-54 -50 -139 -68q-236 -50 -346 82h-54zM707 2507q16 0 30 -1l28 -2t32 1q4 -3 11 -9t17 -20
t-4 -47q-10 -10 -22 -12t-25 -15q0 -6 -14 -20q-77 -162 -182 -322q-14 -12 -28 -25t-31 -10q-17 4 -40 15q-19 28 -39 58q-83 119 -166 296q-4 4 -4 6l-6 15q-36 6 -46 16q-21 23 3 72l31 2l110 -2q2 -9 2 -15t5 -14h8q27 -53 43 -85t42 -78q27 -46 54 -99q10 10 48 64
t95 182l5 47q27 2 43 2z" />
    <glyph glyph-name="Ydieresis" unicode="&#x178;" horiz-adv-x="2232" 
d="M1329 2150q-113 74 -74 139q14 24 56 46q63 0 95 -25q32 -24 33 -56t-28 -62t-82 -42zM922 2148q-118 67 -75 138q15 25 56 47q63 0 94 -25q31 -26 32 -58t-27 -62t-80 -40zM1190 763q0 -128 3 -216t6 -168t6 -146t3 -100q70 -39 63 -81q-4 -22 -30 -42q0 2 2 2h-133
q-53 0 -82 -2q-25 31 -18 71q6 40 45 56q29 66 25 155q-3 89 -7 139t0 93q-8 109 -9 211t-5 217q-48 55 -186 192q-138 136 -369 364t-267 249q-37 21 -65 29t-59 20l4 72q67 32 143 23q142 -17 180 -80q8 -18 6 -35q-4 -31 25 -84q11 0 183 -173t294 -293t178 -157
q38 0 149 103t136 149q18 18 54 50q259 230 337 360q31 49 41 94q-25 29 -5 49q46 45 158 38t124 -72q6 -34 -43 -87q-48 -3 -187 -125t-544 -558q-117 -124 -134 -124q-22 -65 -22 -193z" />
    <glyph glyph-name="florin" unicode="&#x192;" horiz-adv-x="1181" 
d="M639 1333q316 0 356 10q2 -36 9 -85q6 -48 2 -59t-19 -7h-366l-134 -746q-145 -584 -370 -883q-103 -135 -207 -197t-197 -62q-35 61 -21 110q13 49 60 103l139 -35q37 0 92 81q105 158 229 531t190 742q34 190 42 356q-74 2 -148 5t-185 7l-5 142q234 -13 347 -13
q67 343 180 475q114 133 330 131q40 0 88 -12q56 -56 41 -124t-70 -97l-172 66q-64 0 -94 -28q-51 -48 -72 -161z" />
    <glyph glyph-name="circumflex" unicode="&#x2c6;" horiz-adv-x="794" 
d="M553 1882q0 6 -4 14h-8q-27 53 -41 81t-36 67t-61 113q-64 -64 -145 -244l-4 -47q-27 -2 -43 -2l-90 2q-47 24 -25 76q10 10 22 12t25 14q0 6 15 21q75 158 182 321q14 12 24 22t21 13q12 4 53 -14q18 -29 38 -59q92 -135 167 -296q4 -4 4 -8l6 -12q38 -6 46 -17
q21 -25 -3 -71l-30 -2l-111 2q-2 8 -2 14z" />
    <glyph glyph-name="tilde" unicode="&#x2dc;" horiz-adv-x="935" 
d="M590 2054q-59 0 -115 25l-37 16q-80 39 -128 39t-72 -16t-48 -64h-88q35 113 88 162t128 49t161 -39l45 -20q59 -27 99 -27q83 0 122 96h89q-43 -221 -244 -221z" />
    <glyph glyph-name="endash" unicode="&#x2013;" horiz-adv-x="1425" 
d="M522 985h389q362 0 412 10q2 -31 6 -61t6 -50q2 -22 -2 -33t-18 -7h-443q-490 0 -778 12l-4 141q188 -12 432 -12z" />
    <glyph glyph-name="emdash" unicode="&#x2014;" horiz-adv-x="1906" 
d="M522 979h871q361 0 411 10q2 -36 9 -85q6 -48 2 -59t-19 -7h-407q-173 0 -309 1t-282 2q-536 4 -704 9l-4 141q188 -12 432 -12z" />
    <glyph glyph-name="quoteleft" unicode="&#x2018;" horiz-adv-x="503" 
d="M276 1749q234 -148 27 -264q-56 -33 -127 23t-63 155q8 100 77 178q70 78 195 107l6 -43q-57 -23 -97 -68t-46 -96q8 4 28 8z" />
    <glyph glyph-name="quoteright" unicode="&#x2019;" horiz-adv-x="503" 
d="M236 1671q-166 105 -108 198q22 34 65 57q76 41 145 -14t61 -155q-7 -100 -77 -178t-195 -106l-6 43q57 24 97 68t46 95q-8 -4 -28 -8z" />
    <glyph glyph-name="quotesinglbase" unicode="&#x201a;" horiz-adv-x="503" 
d="M236 -20q-234 148 -27 264q60 31 129 -24t61 -155q-8 -99 -77 -178q-70 -78 -195 -106l-6 43q57 24 97 68t46 96q-8 -4 -28 -8z" />
    <glyph glyph-name="quotedblleft" unicode="&#x201c;" horiz-adv-x="921" 
d="M279 1747q233 -148 26 -264q-56 -33 -127 23t-63 155q8 100 78 178t194 107l6 -43q-57 -23 -97 -68t-46 -96q9 4 29 8zM715 1749q233 -148 26 -264q-56 -33 -127 23t-63 155q8 100 78 178t194 107l6 -43q-57 -23 -97 -68t-46 -96q9 4 29 8z" />
    <glyph glyph-name="quotedblright" unicode="&#x201d;" horiz-adv-x="921" 
d="M672 1673q-166 105 -108 198q22 34 65 57q77 41 145 -14t61 -155t-77 -178t-195 -106l-6 43q57 24 97 68t46 95q-8 -4 -28 -8zM236 1671q-166 105 -108 198q22 34 65 57q76 41 145 -14t61 -155q-7 -100 -77 -178t-195 -106l-6 43q57 24 97 68t46 95q-8 -4 -28 -8z" />
    <glyph glyph-name="quotedblbase" unicode="&#x201e;" horiz-adv-x="921" 
d="M672 2q-166 105 -108 198q22 34 65 57q76 41 144 -14t62 -155q-7 -100 -77 -178t-195 -107l-6 43q57 23 97 68t46 96q-8 -4 -28 -8zM236 0q-166 105 -108 198q22 34 65 57q74 40 144 -15t62 -154q-7 -100 -77 -178t-195 -107l-6 43q57 23 97 68t46 96q-8 -4 -28 -8z" />
    <glyph glyph-name="dagger" unicode="&#x2020;" horiz-adv-x="1095" 
d="M489 969l3 643h-181q-177 0 -203 -7t-45 -14l11 148q40 -17 89 -17h120l209 -2v52q0 234 -74 374h227q-30 -180 -34 -268q-3 -88 -3 -158l228 -2q152 0 202 25l-10 -148q-45 17 -242 17h-178l-2 -1161q0 -142 14 -232t21 -110l-190 -109q27 206 38 868v101z" />
    <glyph glyph-name="daggerdbl" unicode="&#x2021;" horiz-adv-x="1095" 
d="M776 1616h-178v-365h227q158 0 203 25l-10 -150q-45 17 -242 17h-178l-2 -690q0 -127 13 -225t22 -117l-191 -109q21 166 30 502t9 469l2 170h-264q-120 0 -164 -21l10 148q44 -19 265 -19h153v365h-180q-176 0 -203 -7q-26 -7 -45 -14l10 148q35 -15 88 -16
q52 -1 121 -1l209 -2v52q0 236 -73 374h227q-30 -180 -34 -268q-3 -88 -3 -158l227 -2q147 0 203 25l-10 -148q-45 17 -242 17z" />
    <glyph glyph-name="bullet" unicode="&#x2022;" horiz-adv-x="714" 
d="M529 1127q73 -73 73 -176t-72 -175q-72 -71 -176 -71q-102 -1 -174 71t-73 176t72 176t177 72t173 -73z" />
    <glyph glyph-name="ellipsis" unicode="&#x2026;" horiz-adv-x="1492" 
d="M1247 -12q-232 147 -26 262q92 0 136 -35t45 -81t-39 -89t-116 -57zM735 -12q-232 147 -26 262q92 0 136 -35t45 -81t-39 -89t-116 -57zM213 -20q-234 148 -27 264q92 0 136 -36t46 -81q1 -45 -39 -89t-116 -58z" />
    <glyph glyph-name="perthousand" unicode="&#x2030;" horiz-adv-x="3260" 
d="M2681 119q240 -49 341 189q30 71 48 155q0 144 -26 217q-49 134 -146 197q-140 57 -219 44q-43 -7 -87 -35t-108 -73q-38 -57 -66 -106t-36 -121q-16 -47 -3 -122q28 -161 118 -268q43 -52 83 -60t64 -9q24 -2 37 -8zM2697 -16q-113 12 -187 53q-74 42 -153 121
q-71 118 -95 246t3 247t105 216t210 149q163 50 305 2q94 -32 170 -114q28 -30 43 -52t19 -25q17 -61 37 -114q66 -181 14 -342q-18 -53 -38 -115t-54 -119l-16 -23q-44 -65 -176 -107q-74 -23 -187 -23zM1636 121q243 -50 341 189q30 71 48 155q0 142 -26 216
q-47 134 -146 198q-140 57 -219 44q-43 -7 -87 -35t-107 -73q-37 -57 -66 -106t-37 -121q-16 -47 -3 -122q13 -76 44 -146t74 -122t83 -60q41 -8 65 -9q24 -2 36 -8zM1653 -14q-114 12 -189 54t-151 120q-70 117 -94 246q-51 265 106 463q78 97 211 149q164 50 304 2
q94 -32 170 -114q28 -30 43 -52t20 -25q18 -61 37 -114q65 -181 14 -342q-18 -53 -34 -100q-24 -72 -58 -134l-17 -23q-44 -66 -176 -107q-73 -23 -186 -23zM492 967q240 -49 341 189q30 71 48 155q0 305 -172 413q-139 57 -220 44q-43 -6 -87 -34t-107 -73
q-37 -57 -66 -107t-36 -120q-15 -47 -3 -122t43 -146t74 -123t83 -59t65 -9t37 -8zM508 831q-112 11 -186 53t-154 122q-70 118 -94 246q-51 266 106 463q78 97 211 149q297 85 474 -112q28 -30 43 -52t20 -25q18 -61 38 -114q66 -181 13 -342q-18 -53 -35 -102
q-25 -75 -57 -132l-17 -23q-44 -66 -176 -107q-73 -24 -186 -24zM379 74q141 171 262 346l844 1120q205 288 231 340q27 -16 71 -38q75 -38 48 -56l-166 -234q-29 -40 -89 -120t-138 -186t-171 -228q-93 -123 -187 -249t-188 -248q-93 -122 -171 -226t-138 -182t-89 -117z
" />
    <glyph glyph-name="guilsinglleft" unicode="&#x2039;" horiz-adv-x="851" 
d="M711 377q34 -22 35 -100q2 -78 -35 -99t-84 53q-113 68 -284 231q-164 151 -241 189q-6 4 -6 21l4 49l539 420l19 19q17 18 43 32t40 2q7 -45 13 -81q6 -35 0 -61q-12 -53 -113 -55q-27 -13 -117 -88t-166 -143t-77 -70l15 -31q37 -80 133 -162q96 -83 200 -138
q27 -2 43 5t39 7z" />
    <glyph glyph-name="guilsinglright" unicode="&#x203a;" horiz-adv-x="851" 
d="M752 721l4 -49q0 -17 -6 -21q-77 -38 -241 -189q-65 -60 -135 -122t-149 -109q-48 -73 -83 -53t-38 88q0 27 10 63q9 36 27 48q23 0 39 -7t43 -5q179 95 279 220q39 48 54 80l15 31q-48 48 -184 164t-176 137q-100 0 -113 55q-6 26 0 62t13 80q14 12 40 -2t43 -32t19 -19
z" />
    <glyph glyph-name="trademark" unicode="&#x2122;" horiz-adv-x="2596" 
d="M1190 713q-39 14 -49 27t12 40q43 21 87 429q11 112 22 221q10 108 18 202t14 152q-51 68 -22 92t127 14q86 -139 259 -470q173 -332 185 -369q7 0 181 386t208 455q38 19 131 5q27 -3 50 -5q1 -21 -15 -40t-29 -39t1 -51t14 -56q26 -129 50 -286q23 -158 42 -285
t42 -292l7 -52q38 -38 7 -61q-32 -23 -142 -11q-12 9 -15 25t4 23t22 19q15 11 5 11q-59 595 -114 863q-12 58 -21 73q-26 -26 -143 -294t-190 -422t-99 -163q-8 14 -39 68t-74 131q-84 152 -190 360t-135 289q-14 -11 -28 -145q-13 -134 -23 -187q-2 -83 -26 -268t-26 -295
q8 -23 22 -35t9 -24q-6 -11 -24 -35h-115zM1126 1894h54q27 -20 23 -136q-1 -28 -7 -42q-10 -2 -18 -3t-21 -5q-23 16 -25 36t-16 32q-64 6 -177 6t-230 -6q-14 -43 -17 -297q-2 -253 -4 -427t6 -270q25 -12 32 -23t3 -52q-41 -3 -77 -9t-89 4q-2 22 0 44t27 51v983h-397
q-31 -48 -55 -56t-35 12q-28 51 12 158q33 -4 61 -4h49l164 2q114 0 254 -10q31 5 181 8q150 2 206 3t96 1z" />
    <glyph glyph-name="minus" horiz-adv-x="1081" 
d="M396 883h356q184 0 227 10q2 -31 9 -81t2 -62t-19 -9h-492q-47 0 -88 1t-101 2t-196 10l-4 141q134 -12 306 -12z" />
    <glyph glyph-name="euro" horiz-adv-x="2158" 
d="M899 1225q362 0 412 10q2 -31 9 -81t2 -62t-19 -9h-482q-206 0 -344 2q-14 -90 -14 -170t10 -135q0 -61 31 -137h391q362 0 412 10q2 -31 6 -61t6 -50q2 -22 -2 -33t-19 -7h-427q-179 0 -289 2q222 -324 662 -384q161 -22 355 13q107 40 144 63q37 24 63 40t72 38
q16 18 32 38q58 72 136 34q0 -99 -45 -140q-23 -22 -57 -42t-76 -58q-198 -120 -472 -122q-215 -4 -432 63q-88 27 -148 57t-75 52q-220 137 -321 350q-35 0 -81 1t-136 3t-123 4l-4 141q186 -12 291 -12q-58 196 -27 447l-256 6l-4 141q174 -12 285 -12q24 114 43 141
q99 215 239 331q108 89 346 195q204 51 318 47q204 -7 379 -92q29 -1 48 9t48 26q20 -14 50 -53t54 -87q58 -118 27 -177q-29 2 -59 6t-58 6q-30 38 -71 123q-458 158 -807 14q-131 -53 -236 -164q-121 -121 -180 -325h393z" />
    </font>
</defs>
</svg>
